<svg xmlns="http://www.w3.org/2000/svg" xmlns:xlink="http://www.w3.org/1999/xlink" width="535" height="69" fill="none" xmlns:v="https://vecta.io/nano"><style><![CDATA[.B{fill-rule:evenodd}.C{fill-opacity:.08}.D{fill:#8566ff}.E{fill:#bfafff}.F{stroke:#bfafff}.G{stroke-opacity:.08}.H{color-interpolation-filters:sRGB}.I{flood-opacity:0}]]></style><path d="M4 5l2.387-5H.613L3 5h1zm22.333 43c0 1.473 1.194 2.667 2.667 2.667s2.667-1.194 2.667-2.667-1.194-2.667-2.667-2.667-2.667 1.194-2.667 2.667zM3 3v2h1V3H3zm0 4v2h1V7H3zm0 4v2h1v-2H3zm0 4v2h1v-2H3zm0 4v2h1v-2H3zm0 4v2h1v-2H3zm0 4v2h1v-2H3zm0 4v2h1v-2H3zm0 4v1h1v-1H3zm0 1l.038.981.997-.078L4 36H3zm.343 2.919a12.41 12.41 0 0 0 .606 1.866l.924-.383c-.229-.551-.416-1.125-.557-1.716l-.973.233zm1.498 3.614c.343.559.73 1.089 1.154 1.586l.76-.65a11.54 11.54 0 0 1-1.062-1.46l-.852.523zm2.541 2.973c.496.425 1.027.811 1.586 1.154l.523-.852c-.515-.316-1.003-.672-1.459-1.062l-.65.76zm3.333 2.046c.6.249 1.223.452 1.866.606l.233-.973c-.591-.141-1.164-.328-1.716-.557l-.383.924zm3.804.911l.981.038v-1c-.304 0-.606-.012-.904-.035l-.077.997zm.981.038h1.125v-1H15.5v1zm3.375 0h2.25v-1h-2.25v1zm4.5 0h2.25v-1h-2.25v1zm4.5 0H29v-1h-1.125v1z" fill="url(#G)"/><g filter="url(#D)"><mask id="A" fill="#fff"><path d="M29 47c0-8.284 6.716-15 15-15h0 116c8.837 0 16 7.163 16 16v5c0 8.837-7.163 16-16 16H44h0c-8.284 0-15-6.716-15-15v-7z" class="B"/></mask><path d="M29 47c0-8.284 6.716-15 15-15h0 116c8.837 0 16 7.163 16 16v5c0 8.837-7.163 16-16 16H44h0c-8.284 0-15-6.716-15-15v-7z" fill-opacity=".24" class="B D"/><path d="M44 32h1v-1h-1v1zm0 0h-1v1h1v-1zm116 0v1-1zm0 37v1-1zM44 69h-1v1h1v-1zm0 0h1v-1h-1v1zm0-38c-8.837 0-16 7.163-16 16h2c0-7.732 6.268-14 14-14v-2zm1 1h0-2 0 2zm115-1H44v2h116v-2zm0 2c8.284 0 15 6.716 15 15h2c0-9.389-7.611-17-17-17v2zm15 15v5h2v-5h-2zm0 5c0 8.284-6.716 15-15 15v2c9.389 0 17-7.611 17-17h-2zM44 70h116v-2H44v2zm-1-1h0 2 0-2zM28 54c0 8.837 7.163 16 16 16v-2c-7.732 0-14-6.268-14-14h-2zm0-7v7h2v-7h-2z" mask="url(#A)" class="C E"/></g><g transform="matrix(-1 0 0 1 176 32)"><rect width="147" height="32" rx="16" fill="url(#H)" fill-opacity=".16"/><rect width="147" height="32" rx="16" fill="url(#I)" fill-opacity=".32"/></g><rect x="-.5" y=".5" width="146" height="31" rx="15.5" transform="matrix(-1 0 0 1 175 32)" class="F G"/><path d="M46.957 53.159c-.636 0-1.198-.161-1.685-.482s-.868-.782-1.143-1.372-.413-1.294-.413-2.103c0-.802.138-1.498.413-2.088s.658-1.046 1.148-1.367 1.057-.482 1.7-.482c.497 0 .89.083 1.178.249s.514.348.666.557l.363.507h.099v-3.759h1.173V53h-1.133v-1.173h-.139c-.086.139-.209.315-.368.527s-.386.396-.681.562-.688.244-1.178.244zm.159-1.054c.471 0 .868-.123 1.193-.368s.572-.592.741-1.029.254-.95.254-1.526c0-.57-.083-1.069-.249-1.496s-.411-.766-.736-1.004-.726-.363-1.203-.363c-.497 0-.912.128-1.243.383s-.575.595-.741 1.029-.244.915-.244 1.452c0 .544.083 1.037.249 1.482s.418.792.746 1.054.742.388 1.233.388zm7.76 1.074c-.484 0-.923-.091-1.317-.273a2.26 2.26 0 0 1-.94-.8c-.232-.351-.348-.776-.348-1.273 0-.437.086-.792.258-1.064s.403-.491.691-.646.607-.272.955-.348l1.059-.189 1.129-.134c.292-.033.504-.088.636-.164s.204-.209.204-.398v-.04c0-.491-.134-.872-.403-1.143s-.668-.408-1.208-.408c-.56 0-.999.123-1.317.368s-.542.507-.671.785l-1.114-.398c.199-.464.464-.825.795-1.084a2.98 2.98 0 0 1 1.094-.547 4.54 4.54 0 0 1 1.173-.159c.245 0 .527.03.845.09s.631.174.93.353.552.449.751.81.298.845.298 1.452V53h-1.173v-1.034h-.06c-.08.166-.212.343-.398.532s-.433.35-.741.482-.684.199-1.129.199zm.179-1.054c.464 0 .855-.091 1.173-.273s.563-.418.726-.706a1.8 1.8 0 0 0 .248-.91v-1.074c-.05.06-.159.114-.328.164a5.54 5.54 0 0 1-.577.124l-.631.09-.492.06c-.305.04-.59.104-.855.194s-.474.217-.636.393-.239.408-.239.706c0 .408.151.716.452.925s.691.308 1.158.308zm5.322.875v-7.636h1.173V53h-1.173zm.597-8.909c-.229 0-.426-.078-.592-.234a.75.75 0 0 1-.244-.562.75.75 0 0 1 .244-.562c.166-.156.363-.234.592-.234s.424.078.587.234.249.343.249.562-.083.406-.249.562-.358.234-.587.234zm3.759-1.273V53H63.56V42.818h1.173zm2.765 13.045c-.199 0-.376-.017-.532-.05s-.263-.06-.323-.089l.298-1.034c.285.073.537.099.756.08s.413-.118.582-.293.33-.453.472-.84l.219-.597-2.824-7.676h1.273l2.108 6.085h.079l2.108-6.085h1.273l-3.242 8.75c-.146.394-.326.721-.542.979a2.03 2.03 0 0 1-.751.582c-.282.126-.6.189-.955.189zM78.193 53v-7.636h1.134v1.153h.079c.139-.378.391-.684.756-.92s.776-.353 1.233-.353l.323.005.293.015v1.193c-.04-.01-.131-.025-.273-.045a2.69 2.69 0 0 0-.442-.035c-.371 0-.703.078-.994.234s-.517.365-.686.636-.249.575-.249.92V53h-1.173zm7.316.179c-.484 0-.923-.091-1.317-.273a2.26 2.26 0 0 1-.94-.8c-.232-.351-.348-.776-.348-1.273 0-.437.086-.792.259-1.064s.403-.491.691-.646.606-.272.955-.348l1.059-.189 1.129-.134c.292-.033.504-.088.636-.164s.204-.209.204-.398v-.04c0-.491-.134-.872-.403-1.143s-.668-.408-1.208-.408c-.56 0-.999.123-1.318.368s-.542.507-.671.785l-1.114-.398c.199-.464.464-.825.795-1.084a2.98 2.98 0 0 1 1.094-.547 4.54 4.54 0 0 1 1.173-.159c.245 0 .527.03.845.09s.631.174.93.353.552.449.751.81.298.845.298 1.452V53h-1.173v-1.034h-.06c-.079.166-.212.343-.398.532s-.432.35-.741.482-.684.199-1.129.199zm.179-1.054c.464 0 .855-.091 1.173-.273s.563-.418.726-.706a1.8 1.8 0 0 0 .249-.91v-1.074c-.05.06-.159.114-.328.164s-.358.088-.577.124l-.631.09-.492.06c-.305.04-.59.104-.855.194s-.474.217-.636.393-.239.408-.239.706c0 .408.151.716.452.925s.691.308 1.158.308zm6.496-3.719V53h-1.173v-7.636h1.134v1.193h.099a2.18 2.18 0 0 1 .815-.935c.365-.239.835-.358 1.412-.358.517 0 .97.106 1.357.318s.689.527.905.955.323.961.323 1.611V53h-1.173v-4.773c0-.6-.156-1.067-.467-1.402s-.739-.507-1.283-.507c-.375 0-.709.081-1.004.244s-.522.399-.691.711-.254.689-.254 1.134zm7.97 1.81l-.02-1.452h.238l3.341-3.401h1.452l-3.56 3.599h-.099l-1.352 1.253zM99.06 53V42.818h1.173V53H99.06zm4.852 0l-2.983-3.778.836-.815L105.404 53h-1.492zm9.742-7.636v.994h-3.958v-.994h3.958zm-2.804-1.829h1.173v7.278c0 .331.048.58.144.746s.226.272.378.328a1.52 1.52 0 0 0 .492.079c.129 0 .236-.007.318-.02l.199-.04.239 1.054a2.41 2.41 0 0 1-.333.09c-.143.033-.323.05-.542.05-.332 0-.656-.071-.975-.214-.314-.143-.576-.36-.785-.651s-.308-.66-.308-1.104v-7.597zM115.279 53v-7.636h1.133v1.153h.08c.139-.378.391-.684.755-.92s.776-.353 1.233-.353l.323.005.294.015v1.193a3.46 3.46 0 0 0-.274-.045 2.68 2.68 0 0 0-.442-.035c-.371 0-.703.078-.994.234a1.76 1.76 0 0 0-.686.636c-.166.268-.249.575-.249.92V53h-1.173zm7.316.179c-.484 0-.923-.091-1.318-.273a2.26 2.26 0 0 1-.939-.8c-.232-.351-.348-.776-.348-1.273 0-.437.086-.792.258-1.064a1.83 1.83 0 0 1 .691-.646c.289-.156.607-.272.955-.348l1.059-.189 1.128-.134c.292-.033.504-.088.637-.164s.203-.209.203-.398v-.04c0-.491-.134-.872-.402-1.143s-.668-.408-1.208-.408c-.56 0-1 .123-1.318.368s-.542.507-.671.785l-1.114-.398c.199-.464.464-.825.796-1.084s.699-.444 1.094-.547a4.53 4.53 0 0 1 1.173-.159c.245 0 .527.03.845.09s.631.174.93.353.552.449.75.81.299.845.299 1.452V53h-1.174v-1.034h-.059a2.07 2.07 0 0 1-.398.532c-.186.189-.432.35-.741.482s-.684.199-1.128.199zm.179-1.054c.464 0 .855-.091 1.173-.273s.563-.418.726-.706.248-.592.248-.91v-1.074c-.049.06-.159.114-.328.164a5.53 5.53 0 0 1-.576.124l-.632.09-.492.06a4.48 4.48 0 0 0-.855.194 1.47 1.47 0 0 0-.636.393c-.159.172-.239.408-.239.706 0 .408.151.716.452.925s.691.308 1.159.308zm8.425 1.034c-.716 0-1.333-.169-1.85-.507s-.915-.804-1.193-1.397-.418-1.271-.418-2.033c0-.776.143-1.46.428-2.053s.689-1.062 1.203-1.397 1.12-.507 1.81-.507c.537 0 1.021.099 1.451.298a2.78 2.78 0 0 1 1.059.835c.275.358.446.776.512 1.253h-1.173c-.089-.348-.288-.656-.596-.925s-.716-.408-1.233-.408c-.458 0-.859.119-1.204.358s-.608.569-.8.999-.283.93-.283 1.506c0 .59.092 1.104.278 1.541s.454.777.795 1.019.75.363 1.214.363c.304 0 .581-.053.83-.159a1.71 1.71 0 0 0 .631-.457c.173-.199.295-.437.368-.716h1.173c-.066.451-.23.857-.492 1.218s-.601.643-1.029.855-.918.313-1.481.313zm5.671-2.943l-.02-1.452h.239l3.341-3.401h1.452l-3.56 3.599h-.099l-1.353 1.253zM135.777 53V42.818h1.173V53h-1.173zm4.852 0l-2.983-3.778.835-.815L142.12 53h-1.491zm2.623 0v-7.636h1.173V53h-1.173zm.596-8.909c-.228 0-.425-.078-.591-.234a.75.75 0 0 1-.244-.562.75.75 0 0 1 .244-.562c.166-.156.363-.234.591-.234s.425.078.587.234.249.343.249.562-.083.406-.249.562-.358.234-.587.234zm3.759 4.315V53h-1.173v-7.636h1.134v1.193h.099c.179-.388.451-.699.815-.935s.836-.358 1.412-.358c.517 0 .97.106 1.358.318s.689.527.904.955.324.961.324 1.611V53h-1.174v-4.773c0-.6-.156-1.067-.467-1.402s-.739-.507-1.283-.507c-.374 0-.709.081-1.004.244a1.74 1.74 0 0 0-.691.711c-.169.312-.254.689-.254 1.134zm9.959 7.616c-.567 0-1.054-.073-1.462-.219a3.11 3.11 0 0 1-1.019-.567c-.268-.232-.482-.481-.641-.746l.934-.656.403.477c.163.182.385.34.666.472s.658.204 1.119.204c.616 0 1.125-.149 1.526-.447s.602-.766.602-1.402v-1.551h-.1a6.07 6.07 0 0 1-.368.517c-.155.202-.381.383-.676.542s-.686.234-1.183.234c-.616 0-1.17-.146-1.66-.437s-.874-.716-1.159-1.273-.422-1.233-.422-2.028c0-.782.137-1.463.412-2.043s.658-1.034 1.149-1.352 1.057-.482 1.7-.482c.497 0 .892.083 1.183.249s.521.348.676.557l.368.507h.12v-1.213h1.133v7.855c0 .656-.149 1.19-.447 1.601s-.693.718-1.194.91-1.05.293-1.66.293zm-.04-4.196c.471 0 .869-.108 1.193-.323s.572-.525.741-.93.254-.888.254-1.452c0-.55-.083-1.036-.249-1.457s-.411-.751-.736-.989-.726-.358-1.203-.358c-.497 0-.911.126-1.243.378s-.575.59-.74 1.014-.244.895-.244 1.412c0 .53.083.999.248 1.407.17.404.418.723.746.955s.743.343 1.233.343z" fill="#d2d0dd"/><g filter="url(#E)"><mask id="B" fill="#fff"><path d="M200 47c0-8.284 6.716-15 15-15h0 75c8.837 0 16 7.163 16 16v5c0 8.837-7.163 16-16 16h-75 0c-8.284 0-15-6.716-15-15v-7z" class="B"/></mask><path d="M200 47c0-8.284 6.716-15 15-15h0 75c8.837 0 16 7.163 16 16v5c0 8.837-7.163 16-16 16h-75 0c-8.284 0-15-6.716-15-15v-7z" fill-opacity=".12" class="B D"/><path d="M215 32h1v-1h-1v1zm0 0h-1v1h1v-1zm75 0v1-1zm0 37v1-1zm-75 0h-1v1h1v-1zm0 0h1v-1h-1v1zm0-38c-8.837 0-16 7.163-16 16h2c0-7.732 6.268-14 14-14v-2zm1 1h0-2 0 2zm74-1h-75v2h75v-2zm0 2c8.284 0 15 6.716 15 15h2c0-9.389-7.611-17-17-17v2zm15 15v5h2v-5h-2zm0 5c0 8.284-6.716 15-15 15v2c9.389 0 17-7.611 17-17h-2zm-90 17h75v-2h-75v2zm-1-1h0 2 0-2zm-15-15c0 8.837 7.163 16 16 16v-2c-7.732 0-14-6.268-14-14h-2zm0-7v7h2v-7h-2z" mask="url(#B)" class="C E"/></g><g transform="matrix(-1 0 0 1 306 32)"><rect width="106" height="32" rx="16" fill="url(#J)" class="C"/><rect width="106" height="32" rx="16" fill="url(#K)" fill-opacity=".04"/></g><rect x="-.5" y=".5" width="105" height="31" rx="15.5" transform="matrix(-1 0 0 1 305 32)" class="F G"/><path d="M220.483 47.074l-1.054.298c-.066-.176-.164-.346-.293-.512a1.43 1.43 0 0 0-.517-.418c-.219-.109-.499-.164-.841-.164-.467 0-.856.108-1.168.323s-.462.482-.462.81c0 .292.106.522.318.691s.543.31.994.423l1.134.278c.683.166 1.191.419 1.526.761s.502.774.502 1.308c0 .438-.126.829-.378 1.173s-.596.616-1.044.815-.968.298-1.561.298c-.779 0-1.423-.169-1.934-.507s-.833-.832-.969-1.482l1.113-.278c.106.411.307.719.602.925s.688.308 1.168.308c.547 0 .981-.116 1.303-.348s.487-.517.487-.845a.89.89 0 0 0-.278-.666c-.186-.182-.471-.318-.855-.408l-1.273-.298c-.699-.166-1.213-.423-1.541-.771s-.488-.79-.488-1.317c0-.431.121-.812.363-1.144s.579-.592 1-.78.904-.283 1.441-.283c.756 0 1.349.166 1.78.497a2.68 2.68 0 0 1 .925 1.313zm4.967 6.085c-.736 0-1.37-.162-1.904-.487a3.27 3.27 0 0 1-1.228-1.372c-.285-.59-.428-1.276-.428-2.058s.143-1.472.428-2.068.689-1.067 1.203-1.402 1.12-.507 1.81-.507a3.62 3.62 0 0 1 1.178.199c.388.133.741.348 1.059.646s.572.686.761 1.173.283 1.087.283 1.8v.497h-5.886v-1.014h4.693c0-.431-.086-.815-.259-1.153s-.411-.605-.726-.8-.679-.293-1.103-.293c-.468 0-.872.116-1.213.348a2.29 2.29 0 0 0-.781.895c-.182.368-.273.762-.273 1.183v.676c0 .577.099 1.066.298 1.467a2.15 2.15 0 0 0 .84.91c.358.206.774.308 1.248.308.308 0 .587-.043.835-.129s.469-.222.652-.398.323-.401.422-.666l1.134.318a2.52 2.52 0 0 1-.602 1.014c-.282.288-.63.514-1.044.676s-.88.239-1.397.239zm4.807-.159v-7.636h1.133v1.153h.08a1.83 1.83 0 0 1 .756-.92 2.22 2.22 0 0 1 1.232-.353l.324.005.293.015v1.193a3.46 3.46 0 0 0-.274-.045 2.68 2.68 0 0 0-.442-.035c-.371 0-.703.078-.994.234a1.76 1.76 0 0 0-.686.636c-.166.268-.249.575-.249.92V53h-1.173zm5.069 2.864v-10.5h1.133v1.213h.139l.358-.507c.156-.209.378-.394.667-.557s.686-.249 1.183-.249c.643 0 1.21.161 1.7.482s.873.777 1.149 1.367.412 1.286.412 2.088c0 .809-.137 1.51-.412 2.103s-.657 1.047-1.144 1.372-1.049.482-1.685.482c-.491 0-.884-.081-1.179-.244s-.522-.353-.681-.562l-.368-.527h-.099v4.037h-1.173zm1.153-6.682c0 .577.085 1.085.254 1.526s.416.78.74 1.029.723.368 1.194.368c.49 0 .9-.129 1.228-.388s.58-.613.745-1.054.254-.938.254-1.482c0-.537-.083-1.021-.249-1.452s-.409-.777-.74-1.029-.741-.383-1.238-.383c-.478 0-.879.121-1.203.363s-.571.573-.736 1.004-.249.926-.249 1.496zm12.209-.776V53h-1.174V42.818h1.174v3.739h.099a2.16 2.16 0 0 1 .806-.94c.361-.235.841-.353 1.441-.353.521 0 .976.104 1.368.313s.694.522.909.95.328.965.328 1.621V53h-1.173v-4.773c0-.607-.157-1.075-.472-1.407s-.744-.502-1.298-.502c-.384 0-.729.081-1.034.244s-.54.399-.716.711-.258.689-.258 1.133zM255.646 53v-7.636h1.173V53h-1.173zm.597-8.909c-.229 0-.426-.078-.592-.234a.75.75 0 0 1-.244-.562.75.75 0 0 1 .244-.562c.166-.156.363-.234.592-.234s.424.078.586.234.249.343.249.562-.083.406-.249.562-.358.234-.586.234zm7.994 2.983l-1.054.298c-.066-.176-.164-.346-.293-.512a1.42 1.42 0 0 0-.517-.418c-.219-.109-.499-.164-.84-.164-.468 0-.857.108-1.169.323s-.462.482-.462.81c0 .292.106.522.318.691s.544.31.995.423l1.133.278c.683.166 1.192.419 1.526.761s.503.774.503 1.308c0 .438-.126.829-.378 1.173s-.597.616-1.044.815-.968.298-1.561.298c-.779 0-1.424-.169-1.934-.507s-.834-.832-.97-1.482l1.114-.278c.106.411.306.719.601.925s.688.308 1.169.308c.547 0 .981-.116 1.302-.348s.487-.517.487-.845c0-.265-.092-.487-.278-.666s-.471-.318-.855-.408l-1.273-.298c-.699-.166-1.213-.423-1.541-.771s-.487-.79-.487-1.317c0-.431.121-.812.363-1.144s.578-.592.999-.78.905-.283 1.442-.283c.755 0 1.349.166 1.78.497s.742.769.924 1.313zm5.087-1.71v.994h-3.958v-.994h3.958zm-2.804-1.829h1.173v7.278c0 .331.048.58.144.746s.226.272.378.328a1.52 1.52 0 0 0 .492.079c.129 0 .236-.007.318-.02l.199-.04.239 1.054a2.41 2.41 0 0 1-.333.09c-.143.033-.323.05-.542.05-.332 0-.656-.071-.975-.214s-.576-.36-.785-.651-.308-.66-.308-1.104v-7.597zm7.449 9.625c-.69 0-1.294-.164-1.815-.492s-.921-.787-1.213-1.377-.432-1.279-.432-2.068c0-.796.144-1.49.432-2.083s.696-1.054 1.213-1.382 1.125-.492 1.815-.492 1.292.164 1.81.492.924.789 1.213 1.382.437 1.288.437 2.083c0 .789-.146 1.478-.437 2.068s-.693 1.049-1.213 1.377-1.121.492-1.81.492zm0-1.054c.524 0 .954-.134 1.292-.403s.589-.621.751-1.059a4.04 4.04 0 0 0 .244-1.422c0-.51-.081-.986-.244-1.427s-.412-.797-.751-1.069-.768-.408-1.292-.408-.955.136-1.293.408a2.4 2.4 0 0 0-.75 1.069c-.163.441-.244.916-.244 1.427a4.04 4.04 0 0 0 .244 1.422 2.37 2.37 0 0 0 .75 1.059c.338.269.769.403 1.293.403zm5.111.895v-7.636h1.134v1.153h.079a1.83 1.83 0 0 1 .756-.92c.364-.235.775-.353 1.233-.353l.323.005.293.015v1.193c-.039-.01-.131-.025-.273-.045s-.287-.035-.443-.035c-.371 0-.702.078-.994.234s-.517.365-.686.636-.249.575-.249.92V53h-1.173zm6.057 2.864c-.199 0-.376-.017-.532-.05s-.263-.06-.323-.089l.298-1.034c.285.073.537.099.756.08s.413-.118.582-.293.33-.453.472-.84l.219-.597-2.824-7.676h1.273l2.108 6.085h.079l2.108-6.085h1.273l-3.242 8.75c-.145.394-.326.721-.542.979s-.465.456-.75.582-.6.189-.955.189z" fill="#9b96b0"/><path d="M173.333 48c0 1.473 1.194 2.667 2.667 2.667s2.667-1.194 2.667-2.667-1.194-2.667-2.667-2.667-2.667 1.194-2.667 2.667zm24 0c0 1.473 1.194 2.667 2.667 2.667s2.667-1.194 2.667-2.667-1.194-2.667-2.667-2.667-2.667 1.194-2.667 2.667zM176 48.5h1v-1h-1v1zm3 0h2v-1h-2v1zm4 0h2v-1h-2v1zm4 0h2v-1h-2v1zm4 0h2v-1h-2v1zm4 0h2v-1h-2v1zm4 0h1v-1h-1v1z" fill="url(#L)"/><g filter="url(#F)"><mask id="C" fill="#fff"><path d="M330 47c0-8.284 6.716-15 15-15h0 174c8.837 0 16 7.163 16 16v5c0 8.837-7.163 16-16 16H345h0c-8.284 0-15-6.716-15-15v-7z" class="B"/></mask><path d="M330 47c0-8.284 6.716-15 15-15h0 174c8.837 0 16 7.163 16 16v5c0 8.837-7.163 16-16 16H345h0c-8.284 0-15-6.716-15-15v-7z" fill-opacity=".12" class="B D"/><path d="M345 32h1v-1h-1v1zm0 0h-1v1h1v-1zm174 0v1-1zm0 37v1-1zm-174 0h-1v1h1v-1zm0 0h1v-1h-1v1zm0-38c-8.837 0-16 7.163-16 16h2c0-7.732 6.268-14 14-14v-2zm1 1h0-2 0 2zm173-1H345v2h174v-2zm0 2c8.284 0 15 6.716 15 15h2c0-9.389-7.611-17-17-17v2zm15 15v5h2v-5h-2zm0 5c0 8.284-6.716 15-15 15v2c9.389 0 17-7.611 17-17h-2zM345 70h174v-2H345v2zm-1-1h0 2 0-2zm-15-15c0 8.837 7.163 16 16 16v-2c-7.732 0-14-6.268-14-14h-2zm0-7v7h2v-7h-2z" mask="url(#C)" class="C E"/></g><g transform="matrix(-1 0 0 1 535 32)"><rect width="205" height="32" rx="16" fill="url(#M)" class="C"/><rect width="205" height="32" rx="16" fill="url(#N)" fill-opacity=".04"/></g><rect x="-.5" y=".5" width="204" height="31" rx="15.5" transform="matrix(-1 0 0 1 534 32)" class="F G"/><path d="M346.247 42.818V53h-1.173V42.818h1.173zm5.111 10.341c-.689 0-1.294-.164-1.814-.492s-.922-.787-1.213-1.377-.433-1.279-.433-2.068c0-.796.144-1.49.433-2.083s.696-1.054 1.213-1.382 1.125-.492 1.814-.492 1.293.164 1.81.492.925.789 1.213 1.382.438 1.288.438 2.083c0 .789-.146 1.478-.438 2.068s-.693 1.049-1.213 1.377-1.12.492-1.81.492zm0-1.054c.524 0 .955-.134 1.293-.403a2.38 2.38 0 0 0 .751-1.059c.162-.437.243-.912.243-1.422s-.081-.986-.243-1.427a2.41 2.41 0 0 0-.751-1.069c-.338-.272-.769-.408-1.293-.408s-.954.136-1.292.408-.589.628-.751 1.069-.244.916-.244 1.427.082.984.244 1.422.413.79.751 1.059.769.403 1.292.403zm8.214 1.054c-.716 0-1.332-.169-1.85-.507s-.914-.804-1.193-1.397-.417-1.271-.417-2.033c0-.776.142-1.46.427-2.053s.69-1.062 1.203-1.397 1.121-.507 1.81-.507c.537 0 1.021.099 1.452.298a2.78 2.78 0 0 1 1.059.835c.275.358.445.776.512 1.253h-1.174c-.089-.348-.288-.656-.596-.925s-.716-.408-1.233-.408a2.06 2.06 0 0 0-1.203.358c-.342.235-.608.569-.801.999s-.283.93-.283 1.506c0 .59.093 1.104.278 1.541s.454.777.796 1.019.749.363 1.213.363a2.09 2.09 0 0 0 .83-.159c.249-.106.459-.258.632-.457s.295-.437.367-.716h1.174c-.067.451-.231.857-.492 1.218s-.602.643-1.03.855-.918.313-1.481.313zm6.825.02c-.484 0-.923-.091-1.317-.273s-.708-.452-.94-.8-.348-.776-.348-1.273c0-.437.086-.792.259-1.064s.402-.491.691-.646.606-.272.954-.348l1.059-.189 1.129-.134c.291-.033.503-.088.636-.164s.204-.209.204-.398v-.04c0-.491-.134-.872-.403-1.143s-.668-.408-1.208-.408c-.56 0-.999.123-1.317.368s-.542.507-.672.785l-1.113-.398c.199-.464.464-.825.795-1.084s.7-.444 1.094-.547a4.54 4.54 0 0 1 1.173-.159c.246 0 .527.03.845.09a2.7 2.7 0 0 1 .93.353c.302.179.552.449.751.81s.298.845.298 1.452V53h-1.173v-1.034h-.06c-.079.166-.212.343-.398.532s-.432.35-.74.482-.685.199-1.129.199zm.179-1.054c.464 0 .855-.091 1.173-.273s.564-.418.726-.706.249-.592.249-.91v-1.074c-.05.06-.159.114-.328.164s-.358.088-.577.124l-.631.09-.493.06a4.48 4.48 0 0 0-.855.194 1.47 1.47 0 0 0-.636.393c-.159.172-.239.408-.239.706 0 .408.151.716.453.925s.691.308 1.158.308zm6.496-9.307V53h-1.173V42.818h1.173zM375.081 53v-7.636h1.173V53h-1.173zm.596-8.909c-.228 0-.425-.078-.591-.234a.75.75 0 0 1-.244-.562.75.75 0 0 1 .244-.562c.166-.156.363-.234.591-.234s.425.078.587.234.249.343.249.562-.083.406-.249.562-.358.234-.587.234zM378.044 53v-.895l4.336-5.568v-.08h-4.196v-1.094h5.707v.935l-4.216 5.528v.079h4.355V53h-5.986zm10.636.159c-.735 0-1.37-.162-1.904-.487s-.939-.785-1.228-1.372-.427-1.276-.427-2.058.142-1.472.427-2.068.69-1.067 1.203-1.402 1.121-.507 1.81-.507c.398 0 .79.066 1.178.199s.741.348 1.059.646.572.686.761 1.173.283 1.087.283 1.8v.497h-5.886v-1.014h4.693c0-.431-.086-.815-.258-1.153s-.411-.605-.726-.8-.68-.293-1.104-.293c-.467 0-.872.116-1.213.348s-.598.527-.781.895-.273.762-.273 1.183v.676c0 .577.099 1.066.298 1.467s.483.701.84.91.774.308 1.248.308c.309 0 .587-.043.836-.129a1.79 1.79 0 0 0 .651-.398c.182-.179.323-.401.422-.666l1.134.318c-.119.385-.32.723-.602 1.014a2.92 2.92 0 0 1-1.044.676c-.414.159-.88.239-1.397.239zm7.691 0c-.637 0-1.199-.161-1.686-.482s-.868-.782-1.143-1.372-.413-1.294-.413-2.103c0-.802.138-1.498.413-2.088s.658-1.046 1.148-1.367 1.057-.482 1.7-.482c.498 0 .89.083 1.179.249s.513.348.666.557l.363.507h.099v-3.759h1.174V53h-1.134v-1.173h-.139a7.5 7.5 0 0 1-.368.527c-.159.209-.386.396-.681.562s-.688.244-1.178.244zm.159-1.054c.47 0 .868-.123 1.193-.368s.572-.592.741-1.029.253-.95.253-1.526c0-.57-.083-1.069-.248-1.496s-.411-.766-.736-1.004-.726-.363-1.203-.363c-.497 0-.912.128-1.243.383s-.575.595-.741 1.029a4.1 4.1 0 0 0-.244 1.452c0 .544.083 1.037.249 1.482s.418.792.746 1.054.742.388 1.233.388zm10.404-1.889l-.02-1.452h.238l3.341-3.401h1.452l-3.56 3.599h-.099l-1.352 1.253zM405.84 53V42.818h1.173V53h-1.173zm4.852 0l-2.983-3.778.835-.815 3.64 4.594h-1.492zm5.51.159c-.735 0-1.37-.162-1.904-.487s-.939-.785-1.228-1.372-.427-1.276-.427-2.058.142-1.472.427-2.068.69-1.067 1.203-1.402 1.121-.507 1.81-.507c.398 0 .791.066 1.178.199s.741.348 1.059.646.572.686.761 1.173.283 1.087.283 1.8v.497h-5.886v-1.014h4.693c0-.431-.086-.815-.258-1.153s-.411-.605-.726-.8-.68-.293-1.104-.293c-.467 0-.872.116-1.213.348s-.598.527-.781.895-.273.762-.273 1.183v.676c0 .577.099 1.066.298 1.467s.483.701.84.91.774.308 1.248.308c.309 0 .587-.043.836-.129a1.79 1.79 0 0 0 .651-.398c.182-.179.323-.401.422-.666l1.134.318c-.119.385-.32.723-.602 1.014a2.92 2.92 0 0 1-1.044.676c-.414.159-.88.239-1.397.239zm5.33 2.704c-.199 0-.376-.017-.532-.05s-.263-.06-.323-.089l.299-1.034c.285.073.536.099.755.08s.413-.118.582-.293.33-.453.472-.84l.219-.597-2.824-7.676h1.273l2.108 6.085h.079l2.108-6.085h1.273l-3.241 8.75c-.146.394-.327.721-.542.979s-.466.456-.751.582-.6.189-.955.189zM430.16 53l-2.327-7.636h1.233l1.651 5.847h.079l1.631-5.847h1.253l1.61 5.827h.08l1.651-5.827h1.233L435.927 53h-1.154l-1.67-5.867h-.119L431.313 53h-1.153zm12.347.159c-.689 0-1.294-.164-1.814-.492s-.922-.787-1.214-1.377-.432-1.279-.432-2.068c0-.796.144-1.49.432-2.083s.696-1.054 1.214-1.382 1.125-.492 1.814-.492 1.293.164 1.81.492.925.789 1.213 1.382.437 1.288.437 2.083c0 .789-.145 1.478-.437 2.068s-.693 1.049-1.213 1.377-1.12.492-1.81.492zm0-1.054c.524 0 .955-.134 1.293-.403a2.37 2.37 0 0 0 .75-1.059 4.04 4.04 0 0 0 .244-1.422c0-.51-.081-.986-.244-1.427a2.4 2.4 0 0 0-.75-1.069c-.338-.272-.769-.408-1.293-.408s-.954.136-1.292.408-.589.628-.751 1.069-.244.916-.244 1.427a4.04 4.04 0 0 0 .244 1.422c.162.438.412.79.751 1.059s.768.403 1.292.403zm5.111.895v-7.636h1.134v1.153h.079a1.84 1.84 0 0 1 .756-.92c.365-.235.776-.353 1.233-.353l.323.005.294.015v1.193a3.46 3.46 0 0 0-.274-.045 2.69 2.69 0 0 0-.442-.035c-.372 0-.703.078-.995.234s-.517.365-.686.636a1.72 1.72 0 0 0-.248.92V53h-1.174zm7.72.159c-.636 0-1.198-.161-1.685-.482s-.868-.782-1.143-1.372-.413-1.294-.413-2.103c0-.802.138-1.498.413-2.088s.658-1.046 1.148-1.367 1.057-.482 1.7-.482c.498 0 .89.083 1.179.249s.513.348.666.557l.363.507h.099v-3.759h1.173V53h-1.133v-1.173h-.139a7.5 7.5 0 0 1-.368.527c-.159.209-.386.396-.681.562s-.688.244-1.179.244zm.16-1.054c.47 0 .868-.123 1.193-.368s.571-.592.741-1.029.253-.95.253-1.526c0-.57-.083-1.069-.249-1.496s-.41-.766-.735-1.004-.726-.363-1.203-.363c-.498 0-.912.128-1.243.383s-.575.595-.741 1.029a4.1 4.1 0 0 0-.244 1.452c0 .544.083 1.037.249 1.482s.417.792.746 1.054.742.388 1.233.388zm9.31.895v-7.636h1.133v1.153h.08a1.83 1.83 0 0 1 .756-.92 2.22 2.22 0 0 1 1.232-.353l.324.005.293.015v1.193a3.49 3.49 0 0 0-.273-.045c-.14-.023-.287-.035-.443-.035-.371 0-.703.078-.994.234a1.76 1.76 0 0 0-.686.636c-.166.268-.249.575-.249.92V53h-1.173zm8.038.159c-.736 0-1.37-.162-1.904-.487a3.27 3.27 0 0 1-1.228-1.372c-.285-.59-.428-1.276-.428-2.058s.143-1.472.428-2.068.689-1.067 1.203-1.402 1.12-.507 1.81-.507a3.62 3.62 0 0 1 1.178.199c.388.133.741.348 1.059.646s.572.686.761 1.173.283 1.087.283 1.8v.497h-5.886v-1.014h4.693c0-.431-.086-.815-.259-1.153s-.411-.605-.726-.8-.679-.293-1.103-.293c-.468 0-.872.116-1.213.348a2.29 2.29 0 0 0-.781.895c-.182.368-.273.762-.273 1.183v.676c0 .577.099 1.066.298 1.467a2.15 2.15 0 0 0 .84.91c.358.206.774.308 1.248.308.308 0 .587-.043.835-.129s.469-.222.652-.398.323-.401.422-.666l1.134.318a2.52 2.52 0 0 1-.602 1.014c-.282.288-.63.514-1.044.676s-.88.239-1.397.239zm10.216-6.085l-1.054.298c-.066-.176-.164-.346-.293-.512a1.43 1.43 0 0 0-.517-.418c-.219-.109-.499-.164-.841-.164-.467 0-.856.108-1.168.323s-.462.482-.462.81c0 .292.106.522.318.691s.543.31.994.423l1.134.278c.682.166 1.191.419 1.526.761s.502.774.502 1.308c0 .438-.126.829-.378 1.173s-.596.616-1.044.815-.968.298-1.561.298c-.779 0-1.423-.169-1.934-.507s-.833-.832-.969-1.482l1.113-.278c.106.411.307.719.602.925s.688.308 1.168.308c.547 0 .981-.116 1.303-.348s.487-.517.487-.845a.89.89 0 0 0-.278-.666c-.186-.182-.471-.318-.856-.408l-1.272-.298c-.7-.166-1.213-.423-1.541-.771s-.488-.79-.488-1.317c0-.431.121-.812.363-1.144s.579-.592 1-.78.904-.283 1.441-.283c.756 0 1.349.166 1.78.497a2.68 2.68 0 0 1 .925 1.313zm4.967 6.085c-.736 0-1.371-.162-1.904-.487a3.27 3.27 0 0 1-1.228-1.372c-.285-.59-.428-1.276-.428-2.058s.143-1.472.428-2.068.689-1.067 1.203-1.402 1.12-.507 1.81-.507a3.62 3.62 0 0 1 1.178.199c.388.133.741.348 1.059.646s.572.686.76 1.173.284 1.087.284 1.8v.497h-5.887v-1.014h4.694c0-.431-.086-.815-.259-1.153s-.411-.605-.726-.8-.679-.293-1.103-.293c-.468 0-.872.116-1.213.348a2.28 2.28 0 0 0-.781.895c-.182.368-.273.762-.273 1.183v.676c0 .577.099 1.066.298 1.467a2.15 2.15 0 0 0 .84.91c.358.206.774.308 1.248.308.308 0 .587-.043.835-.129s.469-.222.651-.398.324-.401.423-.666l1.134.318a2.52 2.52 0 0 1-.602 1.014c-.282.288-.63.514-1.044.676s-.88.239-1.397.239zm7.054.02c-.484 0-.923-.091-1.318-.273a2.26 2.26 0 0 1-.939-.8c-.232-.351-.348-.776-.348-1.273 0-.437.086-.792.258-1.064a1.83 1.83 0 0 1 .691-.646c.289-.156.607-.272.955-.348l1.059-.189 1.128-.134c.292-.033.504-.088.637-.164s.204-.209.204-.398v-.04c0-.491-.135-.872-.403-1.143s-.668-.408-1.208-.408c-.56 0-1 .123-1.318.368s-.542.507-.671.785l-1.114-.398c.199-.464.464-.825.796-1.084s.699-.444 1.094-.547a4.53 4.53 0 0 1 1.173-.159c.245 0 .527.03.845.09a2.7 2.7 0 0 1 .93.353c.301.179.552.449.751.81s.298.845.298 1.452V53h-1.173v-1.034h-.06a2.07 2.07 0 0 1-.398.532c-.185.189-.432.35-.741.482s-.684.199-1.128.199zm.179-1.054c.464 0 .855-.091 1.173-.273s.564-.418.726-.706.249-.592.249-.91v-1.074c-.05.06-.16.114-.329.164a5.53 5.53 0 0 1-.576.124l-.632.09-.492.06a4.48 4.48 0 0 0-.855.194 1.47 1.47 0 0 0-.636.393c-.159.172-.239.408-.239.706 0 .408.151.716.452.925s.691.308 1.159.308zm5.322.875v-7.636h1.134v1.153h.079c.14-.378.391-.684.756-.92s.776-.353 1.233-.353l.323.005.294.015v1.193a3.46 3.46 0 0 0-.274-.045 2.69 2.69 0 0 0-.442-.035c-.372 0-.703.078-.995.234s-.517.365-.686.636-.248.575-.248.92V53h-1.174zm7.939.159c-.716 0-1.332-.169-1.849-.507s-.915-.804-1.193-1.397-.418-1.271-.418-2.033c0-.776.142-1.46.427-2.053s.69-1.062 1.204-1.397 1.12-.507 1.809-.507c.537 0 1.021.099 1.452.298a2.78 2.78 0 0 1 1.059.835c.275.358.446.776.512 1.253h-1.173c-.09-.348-.289-.656-.597-.925s-.716-.408-1.233-.408c-.457 0-.858.119-1.203.358s-.608.569-.8.999-.284.93-.284 1.506c0 .59.093 1.104.279 1.541s.454.777.795 1.019.749.363 1.213.363a2.09 2.09 0 0 0 .83-.159c.249-.106.459-.258.632-.457s.295-.437.368-.716h1.173c-.066.451-.23.857-.492 1.218s-.602.643-1.029.855-.918.313-1.482.313zm5.752-4.753V53h-1.174V42.818h1.174v3.739h.099c.179-.394.447-.708.805-.94s.842-.353 1.442-.353c.52 0 .976.104 1.367.313s.695.522.91.95.328.965.328 1.621V53h-1.173v-4.773c0-.607-.158-1.075-.472-1.407s-.744-.502-1.298-.502c-.384 0-.729.081-1.034.244a1.78 1.78 0 0 0-.716.711c-.172.312-.258.689-.258 1.134z" fill="#9b96b0"/><path d="M303.333 48c0 1.473 1.194 2.667 2.667 2.667s2.667-1.194 2.667-2.667-1.194-2.667-2.667-2.667-2.667 1.194-2.667 2.667zm24 0c0 1.473 1.194 2.667 2.667 2.667s2.667-1.194 2.667-2.667-1.194-2.667-2.667-2.667-2.667 1.194-2.667 2.667zM306 48.5h1v-1h-1v1zm3 0h2v-1h-2v1zm4 0h2v-1h-2v1zm4 0h2v-1h-2v1zm4 0h2v-1h-2v1zm4 0h2v-1h-2v1zm4 0h1v-1h-1v1z" fill="#372a5a"/><defs><filter id="D" x="25" y="28" width="155" height="45" filterUnits="userSpaceOnUse" class="H"><feFlood class="I"/><feGaussianBlur stdDeviation="2"/><feComposite in2="SourceAlpha" operator="in"/><feBlend in="SourceGraphic"/></filter><filter id="E" x="196" y="28" width="114" height="45" filterUnits="userSpaceOnUse" class="H"><feFlood class="I"/><feGaussianBlur stdDeviation="2"/><feComposite in2="SourceAlpha" operator="in"/><feBlend in="SourceGraphic"/></filter><filter id="F" x="326" y="28" width="213" height="45" filterUnits="userSpaceOnUse" class="H"><feFlood class="I"/><feGaussianBlur stdDeviation="2"/><feComposite in2="SourceAlpha" operator="in"/><feBlend in="SourceGraphic"/></filter><linearGradient id="G" x1="16.25" y1="0" x2="16.25" y2="48" xlink:href="#O"><stop stop-color="#3f345a"/><stop offset="1" stop-color="#433277"/></linearGradient><radialGradient id="H" cx="0" cy="0" r="1" gradientTransform="translate(73.5 32) rotate(-90) scale(26.5 155.537)" xlink:href="#O"><stop stop-color="#fff"/><stop offset="1" stop-color="#fff" stop-opacity="0"/></radialGradient><radialGradient id="I" cx="0" cy="0" r="1" gradientTransform="translate(73.5 32) rotate(-90) scale(32 240.943)" xlink:href="#O"><stop stop-color="#8566ff"/><stop offset="1" stop-color="#8566ff" stop-opacity="0"/></radialGradient><radialGradient id="J" cx="0" cy="0" r="1" gradientTransform="translate(53 32) rotate(-90) scale(26.5 112.156)" xlink:href="#O"><stop stop-color="#fff"/><stop offset="1" stop-color="#fff" stop-opacity="0"/></radialGradient><radialGradient id="K" cx="0" cy="0" r="1" gradientTransform="translate(53 32) rotate(-90) scale(32 173.741)" xlink:href="#O"><stop stop-color="#8566ff"/><stop offset="1" stop-color="#8566ff" stop-opacity="0"/></radialGradient><linearGradient id="L" x1="176" y1="48.5" x2="200" y2="48.5" xlink:href="#O"><stop stop-color="#53418b"/><stop offset="1" stop-color="#3a2d60"/></linearGradient><radialGradient id="M" cx="0" cy="0" r="1" gradientTransform="translate(102.5 32) rotate(-90) scale(26.5 216.906)" xlink:href="#O"><stop stop-color="#fff"/><stop offset="1" stop-color="#fff" stop-opacity="0"/></radialGradient><radialGradient id="N" cx="0" cy="0" r="1" gradientTransform="translate(102.5 32) rotate(-90) scale(32 336.009)" xlink:href="#O"><stop stop-color="#8566ff"/><stop offset="1" stop-color="#8566ff" stop-opacity="0"/></radialGradient><linearGradient id="O" gradientUnits="userSpaceOnUse"/></defs></svg>