<svg xmlns="http://www.w3.org/2000/svg" xmlns:xlink="http://www.w3.org/1999/xlink" width="352" height="256" fill="none" xmlns:v="https://vecta.io/nano"><style><![CDATA[.B{stroke-opacity:.12}.C{fill-opacity:.1}.D{shape-rendering:crispEdges}.E{stroke:#0a0118}.F{fill:#fff}.G{stroke:#8566ff}.H{fill:#bab3ff}.I{fill-opacity:.06}.J{stroke-opacity:.08}.K{fill-opacity:.08}.L{stroke-width:2}.M{color-interpolation-filters:sRGB}]]></style><g filter="url(#E)" class="D"><rect x="18" y="18" width="316" height="220" rx="12" fill-opacity=".02" class="F"/><rect x="18" y="18" width="316" height="220" rx="12" fill="url(#G)" fill-opacity=".16"/><rect x="18.5" y="18.5" width="315" height="219" rx="11.5" class="B G"/><rect x="18.5" y="18.5" width="315" height="219" rx="11.5" stroke="url(#H)" class="B"/></g><g opacity=".8" class="B"><rect x="12.5" y="12.5" width="327" height="231" rx="15.5" class="G"/><rect x="12.5" y="12.5" width="327" height="231" rx="15.5" stroke="url(#I)"/></g><g opacity=".6" class="B"><rect x="6.5" y="6.5" width="339" height="243" rx="19.5" class="G"/><rect x="6.5" y="6.5" width="339" height="243" rx="19.5" stroke="url(#J)"/></g><g opacity=".4" class="B"><rect x=".5" y=".5" width="351" height="255" rx="23.5" class="G"/><rect x=".5" y=".5" width="351" height="255" rx="23.5" stroke="url(#K)"/></g><rect x="86" y="30" width="236" height="12" rx="6" class="H I"/><rect x="86.5" y="30.5" width="235" height="11" rx="5.5" stroke="url(#L)" class="J"/><g filter="url(#F)" class="D"><rect x="30" y="54" width="292" height="172" rx="8" fill-opacity=".02" class="F"/><rect x="30" y="54" width="292" height="172" rx="8" fill="url(#M)" fill-opacity=".16"/><rect x="30.5" y="54.5" width="291" height="171" rx="7.5" class="B G"/><rect x="30.5" y="54.5" width="291" height="171" rx="7.5" stroke="url(#N)" class="B"/></g><rect x="62" y="30" width="12" height="12" rx="6" class="H I"/><rect x="62.5" y="30.5" width="11" height="11" rx="5.5" stroke="url(#O)" class="J"/><rect x="46" y="30" width="12" height="12" rx="6" class="H I"/><rect x="46.5" y="30.5" width="11" height="11" rx="5.5" stroke="url(#P)" class="J"/><rect x="30" y="30" width="12" height="12" rx="6" class="H I"/><rect x="30.5" y="30.5" width="11" height="11" rx="5.5" stroke="url(#Q)" class="J"/><circle cx="114" cy="79" r="3" fill="#7c61e3"/><circle cx="114" cy="79" r="2.5" class="B E"/><circle cx="114" cy="91" r="3" fill="#e38e63"/><circle cx="114" cy="91" r="2.5" class="B E"/><circle cx="114" cy="103" r="3" fill="#e3c063"/><circle cx="114" cy="103" r="2.5" class="B E"/><circle cx="114" cy="115" r="3" fill="#70c2d7"/><circle cx="114" cy="115" r="2.5" class="B E"/><g class="H"><rect x="125.229" y="76.081" width="176" height="6" rx="3" class="K"/><rect x="50.229" y="163" width="64" height="8" rx="3" class="C"/><rect x="50.229" y="179" width="64" height="8" rx="3" class="C"/><rect x="50.229" y="195" width="64" height="8" rx="3" class="C"/><rect x="124" y="163" width="18" height="8" rx="3" class="C"/><rect x="124" y="179" width="18" height="8" rx="3" class="C"/><rect x="124" y="195" width="18" height="8" rx="3" class="C"/><rect x="146" y="163" width="18" height="8" rx="3" class="C"/><rect x="146" y="179" width="18" height="8" rx="3" class="C"/><rect x="146" y="195" width="18" height="8" rx="3" class="C"/><rect x="174.229" y="163.081" width="128" height="8" rx="3" class="C"/><rect x="174.229" y="179.081" width="128" height="8" rx="3" class="C"/><rect x="174.229" y="195.081" width="128" height="8" rx="3" class="C"/><rect x="125.229" y="88.081" width="176" height="6" rx="3" class="K"/><rect x="125.229" y="100.081" width="176" height="6" rx="3" class="K"/><rect x="125.229" y="112.081" width="176" height="6" rx="3" class="K"/></g><path stroke="#bab3ff" stroke-opacity=".04" d="M30.229 139.581h291.001"/><mask id="A" class="F"><path d="M73 74a23 23 0 0 1 21.874 15.893 23 23 0 0 1 0 14.214c-1.501 4.62-4.426 8.645-8.355 11.5l-5.408-7.443a13.8 13.8 0 0 0 5.013-15.428A13.8 13.8 0 0 0 73 83.2V74z"/></mask><path d="M73 74a23 23 0 0 1 21.874 15.893 23 23 0 0 1 0 14.214c-1.501 4.62-4.426 8.645-8.355 11.5l-5.408-7.443a13.8 13.8 0 0 0 5.013-15.428A13.8 13.8 0 0 0 73 83.2V74z" fill="#7c61e3" mask="url(#A)" class="B E L"/><mask id="B" class="F"><path d="M86.519 115.607c-2.936 2.134-6.336 3.542-9.921 4.11a22.99 22.99 0 0 1-19.861-6.454c-2.566-2.566-4.489-5.704-5.611-9.156l8.75-2.843c.673 2.072 1.827 3.954 3.367 5.494a13.8 13.8 0 0 0 5.494 3.367c2.071.673 4.272.846 6.423.505s4.191-1.185 5.953-2.466l5.408 7.443z"/></mask><path d="M86.519 115.607c-2.936 2.134-6.336 3.542-9.921 4.11a22.99 22.99 0 0 1-19.861-6.454c-2.566-2.566-4.489-5.704-5.611-9.156l8.75-2.843c.673 2.072 1.827 3.954 3.367 5.494a13.8 13.8 0 0 0 5.494 3.367c2.071.673 4.272.846 6.423.505s4.191-1.185 5.953-2.466l5.408 7.443z" fill="#e38e63" mask="url(#B)" class="B E L"/><mask id="C" class="F"><path d="M51.127 104.112a23 23 0 0 1 8.315-25.691l5.423 7.432a13.8 13.8 0 0 0-4.989 15.414l-8.749 2.845z"/></mask><path d="M51.127 104.112a23 23 0 0 1 8.315-25.691l5.423 7.432a13.8 13.8 0 0 0-4.989 15.414l-8.749 2.845z" fill="#e3c063" mask="url(#C)" class="B E L"/><mask id="D" class="F"><path d="M59.441 78.421A23 23 0 0 1 72.998 74l.001 9.2a13.8 13.8 0 0 0-8.134 2.653l-5.424-7.431z"/></mask><path d="M59.441 78.421A23 23 0 0 1 72.998 74l.001 9.2a13.8 13.8 0 0 0-8.134 2.653l-5.424-7.431z" fill="#70c2d7" mask="url(#D)" class="B E L"/><defs><filter id="E" x="6" y="6" width="340" height="244" filterUnits="userSpaceOnUse" class="M"><feFlood flood-opacity="0"/><feGaussianBlur stdDeviation="6"/><feComposite in2="SourceAlpha" operator="in" result="B"/><feColorMatrix in="SourceAlpha" values="0 0 0 0 0 0 0 0 0 0 0 0 0 0 0 0 0 0 127 0" result="C"/><feOffset dy="4"/><feGaussianBlur stdDeviation="2"/><feComposite in2="C" operator="out"/><feColorMatrix values="0 0 0 0 0 0 0 0 0 0 0 0 0 0 0 0 0 0 0.25 0"/><feBlend in2="B"/><feBlend in="SourceGraphic"/></filter><filter id="F" x="18" y="42" width="316" height="196" filterUnits="userSpaceOnUse" class="M"><feFlood flood-opacity="0"/><feGaussianBlur stdDeviation="6"/><feComposite in2="SourceAlpha" operator="in" result="B"/><feColorMatrix in="SourceAlpha" values="0 0 0 0 0 0 0 0 0 0 0 0 0 0 0 0 0 0 127 0" result="C"/><feOffset dy="4"/><feGaussianBlur stdDeviation="2"/><feComposite in2="C" operator="out"/><feColorMatrix values="0 0 0 0 0 0 0 0 0 0 0 0 0 0 0 0 0 0 0.25 0"/><feBlend in2="B"/><feBlend in="SourceGraphic"/></filter><radialGradient id="G" cx="0" cy="0" r="1" gradientTransform="translate(176 214.287) rotate(90) scale(216.213 227.696)" xlink:href="#R"><stop stop-color="#8566ff"/><stop offset="1" stop-color="#8566ff" stop-opacity=".2"/></radialGradient><linearGradient id="H" x1="50.917" y1="192.167" x2="81.748" y2="126.986" xlink:href="#R"><stop stop-color="#a9a3c2"/><stop offset="1" stop-color="#a9a3c2" stop-opacity=".2"/></linearGradient><linearGradient id="I" x1="46.167" y1="195.667" x2="79.006" y2="127.333" xlink:href="#R"><stop stop-color="#a9a3c2"/><stop offset="1" stop-color="#a9a3c2" stop-opacity=".2"/></linearGradient><linearGradient id="J" x1="41.417" y1="199.167" x2="76.266" y2="127.693" xlink:href="#R"><stop stop-color="#a9a3c2"/><stop offset="1" stop-color="#a9a3c2" stop-opacity=".2"/></linearGradient><linearGradient id="K" x1="36.667" y1="202.667" x2="73.53" y2="128.065" xlink:href="#R"><stop stop-color="#a9a3c2"/><stop offset="1" stop-color="#a9a3c2" stop-opacity=".2"/></linearGradient><linearGradient id="L" x1="322" y1="36" x2="86" y2="36" xlink:href="#R"><stop stop-color="#8566ff"/><stop offset="1" stop-color="#8566ff" stop-opacity="0"/></linearGradient><radialGradient id="M" cx="0" cy="0" r="1" gradientTransform="translate(176 207.461) rotate(90) scale(169.039 210.402)" xlink:href="#R"><stop stop-color="#8566ff"/><stop offset="1" stop-color="#8566ff" stop-opacity=".2"/></radialGradient><linearGradient id="N" x1="60.417" y1="190.167" x2="81.929" y2="136.415" xlink:href="#R"><stop stop-color="#a9a3c2"/><stop offset="1" stop-color="#a9a3c2" stop-opacity=".2"/></linearGradient><linearGradient id="O" x1="74" y1="36" x2="62" y2="36" xlink:href="#R"><stop stop-color="#8566ff"/><stop offset="1" stop-color="#8566ff" stop-opacity="0"/></linearGradient><linearGradient id="P" x1="58" y1="36" x2="46" y2="36" xlink:href="#R"><stop stop-color="#8566ff"/><stop offset="1" stop-color="#8566ff" stop-opacity="0"/></linearGradient><linearGradient id="Q" x1="42" y1="36" x2="30" y2="36" xlink:href="#R"><stop stop-color="#8566ff"/><stop offset="1" stop-color="#8566ff" stop-opacity="0"/></linearGradient><linearGradient id="R" gradientUnits="userSpaceOnUse"/></defs></svg>