<svg xmlns="http://www.w3.org/2000/svg" xmlns:xlink="http://www.w3.org/1999/xlink" width="540" height="148" fill="none" xmlns:v="https://vecta.io/nano"><style><![CDATA[.B{fill:#fff}.C{fill:#bab3ff}.D{fill-opacity:.08}.E{fill-opacity:.5}.F{fill-opacity:.9}.G{stroke-opacity:.1}]]></style><g filter="url(#A)"><use xlink:href="#g" fill-opacity=".02" class="B"/><use xlink:href="#g" fill="url(#B)" fill-opacity=".06"/><path d="M.5 12C.5 5.649 5.649.5 12 .5h516c6.351 0 11.5 5.149 11.5 11.5v124c0 6.351-5.149 11.5-11.5 11.5H12C5.649 147.5.5 142.351.5 136V12z" stroke="#bfafff" stroke-opacity=".04"/><path d="M0.5 12C0.5 5.64873 5.64873 0.5 12 0.5H528C534.351 0.5 539.5 5.64872 539.5 12V136C539.5 142.351 534.351 147.5 528 147.5H12C5.64873 147.5 0.5 142.351 0.5 136V12Z" stroke="url(#C)" stroke-opacity=".2"/><path d="M69.894 22.818l3.023 8.571h.119l3.023-8.571h1.293L73.613 33H72.34l-3.739-10.182h1.293zm11.192 10.341c-.689 0-1.294-.164-1.815-.492s-.921-.787-1.213-1.377-.433-1.279-.433-2.068c0-.795.144-1.49.433-2.083s.696-1.054 1.213-1.382 1.125-.492 1.815-.492 1.293.164 1.81.492a3.29 3.29 0 0 1 1.213 1.382c.292.593.438 1.288.438 2.083 0 .789-.146 1.478-.437 2.068s-.693 1.049-1.213 1.377-1.12.492-1.81.492zm0-1.054c.524 0 .954-.134 1.293-.403s.588-.621.751-1.059.244-.912.244-1.422-.081-.986-.244-1.427-.413-.797-.751-1.069-.769-.408-1.293-.408-.955.136-1.293.408-.588.628-.751 1.069-.244.917-.244 1.427.081.984.244 1.422.413.79.751 1.059.769.403 1.293.403zm6.34-9.287V33h-1.173V22.818h1.173zm6.877 7.06v-4.514h1.173V33h-1.173v-1.293h-.08c-.179.388-.457.718-.835.989s-.855.403-1.432.403a2.55 2.55 0 0 1-1.273-.313c-.371-.212-.663-.53-.875-.954s-.318-.966-.318-1.616v-4.852h1.173v4.773c0 .557.156 1.001.467 1.332s.716.497 1.203.497c.292 0 .588-.075.89-.224a1.94 1.94 0 0 0 .766-.686c.209-.308.313-.701.313-1.178zM97.542 33v-7.636h1.133v1.193h.099a1.92 1.92 0 0 1 .771-.95c.355-.229.781-.343 1.278-.343.504 0 .923.114 1.258.343s.601.542.79.95h.08a2.22 2.22 0 0 1 .88-.94c.391-.235.86-.353 1.407-.353.682 0 1.241.214 1.675.641s.651 1.085.651 1.984V33h-1.173v-5.111c0-.563-.154-.966-.462-1.208s-.671-.363-1.089-.363c-.537 0-.953.162-1.248.487s-.442.729-.442 1.223V33h-1.194v-5.23c0-.434-.14-.784-.422-1.049s-.645-.403-1.089-.403a1.61 1.61 0 0 0-.855.244 1.84 1.84 0 0 0-.636.676c-.159.285-.239.615-.239.989V33h-1.173zm15.285.159c-.735 0-1.37-.162-1.904-.487s-.939-.786-1.228-1.372-.427-1.276-.427-2.058.142-1.472.427-2.068.69-1.067 1.203-1.402 1.121-.507 1.81-.507c.398 0 .79.066 1.178.199s.741.348 1.059.646.572.686.761 1.173.283 1.087.283 1.8v.497h-5.886v-1.014h4.693c0-.431-.086-.815-.258-1.153s-.411-.605-.726-.8-.68-.293-1.104-.293c-.467 0-.872.116-1.213.348s-.598.527-.781.895-.273.762-.273 1.183v.676c0 .577.099 1.066.298 1.467s.483.701.84.91.774.308 1.248.308c.309 0 .587-.043.836-.129a1.79 1.79 0 0 0 .651-.398c.182-.179.323-.401.422-.666l1.134.318c-.119.384-.32.723-.602 1.014a2.92 2.92 0 0 1-1.044.676c-.414.159-.88.239-1.397.239z" class="B E"/><path d="M170.414 23.912v-1.094h7.636v1.094h-3.202V33h-1.233v-9.088h-3.201zM178.917 33v-7.636h1.133v1.153h.08c.139-.378.391-.684.755-.92s.776-.353 1.233-.353l.324.005.293.015v1.193a3.46 3.46 0 0 0-.274-.045 2.68 2.68 0 0 0-.442-.035c-.371 0-.703.078-.994.234a1.76 1.76 0 0 0-.686.636c-.166.268-.249.575-.249.92V33h-1.173zm8.094.159c-.736 0-1.371-.162-1.904-.487a3.27 3.27 0 0 1-1.228-1.372c-.285-.59-.428-1.276-.428-2.058s.143-1.472.428-2.068.689-1.067 1.203-1.402 1.12-.507 1.81-.507a3.62 3.62 0 0 1 1.178.199c.388.133.741.348 1.059.646s.572.686.761 1.173.283 1.087.283 1.8v.497h-5.886v-1.014h4.693c0-.431-.086-.815-.259-1.153s-.411-.605-.726-.8-.679-.293-1.103-.293c-.468 0-.872.116-1.213.348a2.28 2.28 0 0 0-.781.895c-.182.368-.273.762-.273 1.183v.676c0 .577.099 1.066.298 1.467a2.15 2.15 0 0 0 .84.91c.358.206.774.308 1.248.308.308 0 .587-.043.835-.129s.469-.222.651-.398.324-.401.423-.666l1.134.318a2.52 2.52 0 0 1-.602 1.014c-.282.288-.63.514-1.044.676s-.88.239-1.397.239zm6.036-4.753V33h-1.173v-7.636h1.133v1.193h.1c.179-.388.45-.699.815-.935s.835-.358 1.412-.358c.517 0 .969.106 1.357.318a2.14 2.14 0 0 1 .905.954c.215.424.323.961.323 1.611V33h-1.173v-4.773c0-.6-.156-1.067-.467-1.402s-.74-.507-1.283-.507c-.375 0-.709.081-1.004.244a1.74 1.74 0 0 0-.691.711c-.17.312-.254.689-.254 1.133zm9.816 4.753c-.637 0-1.198-.161-1.686-.482s-.868-.782-1.143-1.372-.413-1.294-.413-2.103c0-.802.138-1.498.413-2.088s.658-1.046 1.148-1.367 1.058-.482 1.701-.482c.497 0 .889.083 1.178.249s.514.348.666.557l.363.507h.099v-3.758h1.174V33h-1.134v-1.173h-.139a7.5 7.5 0 0 1-.368.527c-.159.209-.386.396-.681.562s-.688.244-1.178.244zm.159-1.054c.47 0 .868-.123 1.193-.368s.572-.592.741-1.029.253-.95.253-1.526c0-.57-.083-1.069-.248-1.496s-.411-.766-.736-1.004-.726-.363-1.203-.363c-.497 0-.912.128-1.243.383s-.575.595-.741 1.029a4.1 4.1 0 0 0-.244 1.452c0 .544.083 1.037.249 1.482s.418.792.746 1.054.742.388 1.233.388z" class="B E"/><path d="M260.575 33V22.818h3.44c.799 0 1.452.144 1.959.432s.888.671 1.134 1.158.367 1.031.367 1.631-.122 1.145-.367 1.636-.617.882-1.124 1.173-1.157.432-1.949.432h-2.466v-1.094h2.426c.547 0 .986-.095 1.318-.283a1.69 1.69 0 0 0 .721-.766c.152-.325.228-.691.228-1.099s-.076-.772-.228-1.094a1.63 1.63 0 0 0-.726-.756c-.335-.186-.779-.278-1.333-.278h-2.167V33h-1.233zm11.664.159c-.69 0-1.295-.164-1.815-.492s-.921-.787-1.213-1.377-.432-1.279-.432-2.068c0-.795.144-1.49.432-2.083s.696-1.054 1.213-1.382 1.125-.492 1.815-.492 1.292.164 1.809.492.925.789 1.213 1.382.438 1.288.438 2.083c0 .789-.146 1.478-.438 2.068a3.29 3.29 0 0 1-1.213 1.377c-.517.328-1.12.492-1.809.492zm0-1.054c.523 0 .954-.134 1.292-.403s.589-.621.751-1.059.244-.912.244-1.422-.082-.986-.244-1.427-.413-.797-.751-1.069-.769-.408-1.292-.408-.955.136-1.293.408a2.41 2.41 0 0 0-.751 1.069c-.162.441-.243.917-.243 1.427s.081.984.243 1.422a2.38 2.38 0 0 0 .751 1.059c.338.268.769.403 1.293.403zm10.576-5.031l-1.054.298c-.066-.176-.164-.346-.293-.512a1.43 1.43 0 0 0-.517-.418c-.219-.109-.499-.164-.84-.164-.468 0-.857.108-1.169.323s-.462.482-.462.81c0 .292.106.522.318.691s.544.31.994.423l1.134.278c.683.166 1.191.419 1.526.761s.502.774.502 1.308c0 .438-.126.829-.378 1.173s-.596.616-1.044.815-.967.298-1.561.298c-.779 0-1.423-.169-1.934-.507s-.833-.832-.969-1.482l1.114-.279c.106.411.306.719.601.925s.688.308 1.168.308c.547 0 .981-.116 1.303-.348s.487-.517.487-.845a.89.89 0 0 0-.278-.666c-.186-.182-.471-.318-.855-.408l-1.273-.298c-.699-.166-1.213-.423-1.541-.771s-.487-.791-.487-1.318c0-.431.121-.812.362-1.143.246-.331.579-.592 1-.78s.905-.283 1.442-.283c.755 0 1.348.166 1.779.497s.743.769.925 1.313zM284.636 33v-7.636h1.174V33h-1.174zm.597-8.909c-.229 0-.426-.078-.592-.234a.75.75 0 0 1-.243-.562.75.75 0 0 1 .243-.562c.166-.156.363-.234.592-.234a.82.82 0 0 1 .587.234c.165.156.248.343.248.562s-.083.406-.248.562a.82.82 0 0 1-.587.234zm5.963 1.273v.994h-3.958v-.994h3.958zm-2.804-1.83h1.173v7.278c0 .331.048.58.144.746s.226.272.378.328a1.52 1.52 0 0 0 .492.08c.129 0 .236-.007.318-.02l.199-.04.239 1.054a2.41 2.41 0 0 1-.333.09c-.143.033-.323.05-.542.05-.332 0-.656-.071-.975-.214s-.576-.36-.785-.651-.308-.66-.308-1.104v-7.597zM292.877 33v-7.636h1.173V33h-1.173zm.596-8.909a.83.83 0 0 1-.591-.234.75.75 0 0 1-.244-.562.75.75 0 0 1 .244-.562.83.83 0 0 1 .591-.234.82.82 0 0 1 .587.234.74.74 0 0 1 .248.562.74.74 0 0 1-.248.562.82.82 0 0 1-.587.234zm5.744 9.068c-.689 0-1.294-.164-1.814-.492s-.922-.787-1.214-1.377-.432-1.279-.432-2.068c0-.795.144-1.49.432-2.083s.696-1.054 1.214-1.382 1.125-.492 1.814-.492 1.293.164 1.81.492.925.789 1.213 1.382.437 1.288.437 2.083c0 .789-.145 1.478-.437 2.068s-.693 1.049-1.213 1.377-1.12.492-1.81.492zm0-1.054c.524 0 .955-.134 1.293-.403a2.37 2.37 0 0 0 .75-1.059 4.04 4.04 0 0 0 .244-1.422c0-.51-.081-.986-.244-1.427a2.4 2.4 0 0 0-.75-1.069c-.338-.272-.769-.408-1.293-.408s-.954.136-1.292.408-.589.628-.751 1.069-.244.917-.244 1.427a4.04 4.04 0 0 0 .244 1.422c.162.438.412.79.751 1.059s.768.403 1.292.403zm6.341-3.699V33h-1.174v-7.636h1.134v1.193h.099a2.18 2.18 0 0 1 .816-.935c.364-.239.835-.358 1.412-.358.517 0 .969.106 1.357.318s.689.527.905.954.323.961.323 1.611V33h-1.173v-4.773c0-.6-.156-1.067-.468-1.402s-.739-.507-1.282-.507c-.375 0-.71.081-1.005.244s-.522.399-.691.711-.253.689-.253 1.133z" class="B E"/><path d="M345.862 22.818l3.022 8.571h.12l3.022-8.571h1.293L349.58 33h-1.272l-3.739-10.182h1.293zm8.8 10.182v-7.636h1.173V33h-1.173zm.596-8.909c-.228 0-.425-.078-.591-.234a.75.75 0 0 1-.244-.562.75.75 0 0 1 .244-.562c.166-.156.363-.234.591-.234s.425.078.587.234.249.343.249.562-.083.406-.249.562-.358.234-.587.234zm8.051 2.983l-1.054.298c-.066-.176-.164-.346-.293-.512a1.42 1.42 0 0 0-.517-.418c-.219-.109-.499-.164-.84-.164-.468 0-.857.108-1.169.323s-.462.482-.462.81c0 .292.106.522.318.691s.544.31.995.423l1.133.278c.683.166 1.192.419 1.526.761s.502.774.502 1.308c0 .438-.125.829-.377 1.173s-.597.616-1.044.815-.968.298-1.562.298c-.778 0-1.423-.169-1.933-.507s-.834-.832-.97-1.482l1.114-.279c.106.411.306.719.601.925s.688.308 1.169.308c.546 0 .981-.116 1.302-.348s.487-.517.487-.845c0-.265-.092-.487-.278-.666s-.471-.318-.855-.408l-1.273-.298c-.699-.166-1.213-.423-1.541-.771s-.487-.791-.487-1.318c0-.431.121-.812.363-1.143s.578-.592.999-.78.905-.283 1.442-.283c.755 0 1.349.166 1.78.497s.742.769.924 1.313zm6.634 2.804v-4.514h1.173V33h-1.173v-1.293h-.079c-.179.388-.458.718-.836.989s-.855.403-1.431.403c-.478 0-.902-.104-1.273-.313s-.663-.53-.875-.954-.318-.966-.318-1.616v-4.852h1.173v4.773c0 .557.156 1.001.467 1.332s.716.497 1.203.497c.292 0 .589-.075.89-.224s.56-.378.766-.686.313-.701.313-1.178zm5.486 3.301c-.484 0-.924-.091-1.318-.273s-.708-.452-.94-.8-.348-.776-.348-1.273c0-.437.087-.792.259-1.064s.403-.491.691-.646.607-.272.955-.348l1.058-.189 1.129-.134c.292-.033.504-.088.636-.164s.204-.209.204-.398v-.04c0-.491-.134-.872-.402-1.143s-.668-.408-1.209-.408c-.56 0-.999.123-1.317.368s-.542.507-.671.785l-1.114-.398c.199-.464.464-.825.796-1.084s.699-.444 1.093-.547.789-.159 1.174-.159c.245 0 .527.03.845.09s.631.174.93.353.551.449.75.81.299.845.299 1.452V33h-1.174v-1.034h-.059c-.08.166-.213.343-.398.532s-.433.35-.741.482-.684.199-1.128.199zm.179-1.054c.464 0 .855-.091 1.173-.273a1.87 1.87 0 0 0 .726-.706c.165-.288.248-.592.248-.91v-1.074c-.049.06-.159.114-.328.164s-.358.088-.577.124l-.631.09-.492.06a4.48 4.48 0 0 0-.855.194c-.262.086-.474.217-.637.393s-.238.408-.238.706c0 .408.151.716.452.925s.691.308 1.159.308zm6.551-9.307V33h-1.173V22.818h1.173zM388.237 33V22.818h3.44c.796 0 1.449.136 1.959.408s.888.638 1.134 1.109.367 1.006.367 1.606-.122 1.132-.367 1.596-.622.829-1.129 1.094-1.155.393-1.944.393h-2.784v-1.114h2.744c.544 0 .981-.08 1.313-.239s.577-.384.726-.676.228-.646.228-1.054-.076-.764-.228-1.069a1.56 1.56 0 0 0-.731-.706c-.335-.169-.777-.254-1.328-.254h-2.167V33h-1.233zm4.793-4.574L395.535 33h-1.432l-2.466-4.574h1.393zm6.166 4.753c-.484 0-.923-.091-1.317-.273s-.708-.452-.94-.8-.348-.776-.348-1.273c0-.437.086-.792.258-1.064s.403-.491.692-.646.606-.272.954-.348l1.059-.189 1.129-.134c.291-.033.503-.088.636-.164s.204-.209.204-.398v-.04c0-.491-.134-.872-.403-1.143s-.668-.408-1.208-.408c-.56 0-.999.123-1.318.368s-.541.507-.671.785l-1.113-.398c.199-.464.464-.825.795-1.084s.699-.444 1.094-.547a4.54 4.54 0 0 1 1.173-.159c.245 0 .527.03.845.09a2.7 2.7 0 0 1 .93.353c.302.179.552.449.751.81s.298.845.298 1.452V33h-1.173v-1.034h-.06c-.079.166-.212.343-.398.532s-.432.35-.74.482-.685.199-1.129.199zm.179-1.054c.464 0 .855-.091 1.173-.273s.564-.418.726-.706.249-.592.249-.91v-1.074c-.05.06-.159.114-.328.164s-.358.088-.577.124l-.631.09-.493.06a4.48 4.48 0 0 0-.855.194 1.47 1.47 0 0 0-.636.393c-.159.172-.239.408-.239.706 0 .408.151.716.453.925s.691.308 1.158.308zm6.552-3.719V33h-1.173v-7.636h1.133v1.193h.1a2.17 2.17 0 0 1 .815-.935c.364-.239.835-.358 1.412-.358.517 0 .969.106 1.357.318s.689.527.905.954.323.961.323 1.611V33h-1.173v-4.773c0-.6-.156-1.067-.468-1.402s-.739-.507-1.282-.507c-.375 0-.71.081-1.005.244s-.522.399-.691.711-.253.689-.253 1.133zm8.026 1.81l-.02-1.452h.239l3.34-3.401h1.452l-3.56 3.599h-.099l-1.352 1.253zM412.859 33V22.818h1.173V33h-1.173zm4.852 0l-2.983-3.778.836-.815L419.203 33h-1.492z" class="B E"/><path d="M461.931 26h-1.233c-.073-.355-.2-.666-.383-.935a2.54 2.54 0 0 0-.656-.676 2.79 2.79 0 0 0-.85-.418c-.312-.093-.636-.139-.974-.139-.617 0-1.175.156-1.676.467s-.893.771-1.188 1.377-.438 1.351-.438 2.232.146 1.626.438 2.232.691 1.066 1.188 1.377 1.059.467 1.676.467c.338 0 .662-.046.974-.139s.595-.23.85-.413a2.61 2.61 0 0 0 .656-.681 2.6 2.6 0 0 0 .383-.935h1.233c-.093.52-.262.986-.507 1.397s-.55.761-.915 1.049-.774.502-1.228.651-.933.224-1.446.224c-.869 0-1.641-.212-2.317-.636s-1.208-1.027-1.596-1.81-.582-1.71-.582-2.784.194-2.002.582-2.784.92-1.385 1.596-1.81 1.448-.636 2.317-.636c.513 0 .995.075 1.446.224s.864.368 1.228.656a3.74 3.74 0 0 1 .915 1.044c.245.408.414.873.507 1.397zm2.923 2.406V33h-1.174V22.818h1.174v3.739h.099c.179-.394.448-.708.805-.94.362-.235.842-.353 1.442-.353.521 0 .976.104 1.367.313a2.1 2.1 0 0 1 .91.95c.219.424.328.964.328 1.621V33h-1.173v-4.773c0-.607-.157-1.075-.472-1.407s-.744-.502-1.298-.502c-.384 0-.729.081-1.034.244a1.78 1.78 0 0 0-.716.711c-.172.312-.258.689-.258 1.133zm9.261 4.773c-.484 0-.923-.091-1.317-.273s-.708-.452-.94-.8-.348-.776-.348-1.273c0-.437.086-.792.258-1.064a1.83 1.83 0 0 1 .691-.646c.289-.156.607-.272.955-.348l1.059-.189 1.129-.134c.291-.033.503-.088.636-.164s.204-.209.204-.398v-.04c0-.491-.135-.872-.403-1.143s-.668-.408-1.208-.408c-.56 0-.999.123-1.318.368s-.541.507-.671.785l-1.113-.398c.199-.464.464-.825.795-1.084s.699-.444 1.094-.547a4.54 4.54 0 0 1 1.173-.159c.245 0 .527.03.845.09a2.7 2.7 0 0 1 .93.353c.302.179.552.449.751.81s.298.845.298 1.452V33h-1.173v-1.034h-.06c-.079.166-.212.343-.398.532s-.432.35-.74.482-.685.199-1.129.199zm.179-1.054c.464 0 .855-.091 1.173-.273s.564-.418.726-.706.249-.592.249-.91v-1.074c-.05.06-.159.114-.328.164s-.358.088-.577.124l-.632.09-.492.06a4.48 4.48 0 0 0-.855.194 1.47 1.47 0 0 0-.636.393c-.159.172-.239.408-.239.706 0 .408.151.716.453.925s.691.308 1.158.308zm6.552-3.719V33h-1.173v-7.636h1.133v1.193h.099a2.18 2.18 0 0 1 .816-.935c.364-.239.835-.358 1.412-.358.517 0 .969.106 1.357.318s.689.527.905.954.323.961.323 1.611V33h-1.173v-4.773c0-.6-.156-1.067-.468-1.402s-.739-.507-1.282-.507c-.375 0-.71.081-1.005.244s-.522.399-.691.711-.253.689-.253 1.133zm10.014 7.617c-.566 0-1.054-.073-1.461-.219s-.748-.332-1.019-.567a3.09 3.09 0 0 1-.642-.746l.935-.656c.106.139.24.298.403.477s.384.34.666.472.658.204 1.118.204c.617 0 1.126-.149 1.527-.447s.601-.766.601-1.402v-1.551h-.099c-.086.139-.209.311-.368.517s-.381.383-.676.542-.686.234-1.183.234c-.617 0-1.17-.146-1.661-.437s-.873-.716-1.158-1.273-.423-1.233-.423-2.029c0-.782.138-1.463.413-2.043s.658-1.034 1.148-1.352 1.057-.482 1.7-.482c.498 0 .892.083 1.184.249s.52.348.676.557l.368.507h.119v-1.213h1.134v7.855c0 .656-.15 1.19-.448 1.601a2.55 2.55 0 0 1-1.193.91c-.497.196-1.051.293-1.661.293zm-.039-4.196c.47 0 .868-.108 1.193-.323s.572-.525.741-.93.253-.888.253-1.452c0-.55-.083-1.036-.248-1.457s-.411-.751-.736-.989-.726-.358-1.203-.358c-.498 0-.912.126-1.243.378s-.575.59-.741 1.014a3.93 3.93 0 0 0-.244 1.412c0 .53.083.999.249 1.407s.418.723.746.955.742.343 1.233.343zm8.606 1.332c-.736 0-1.371-.162-1.904-.487a3.27 3.27 0 0 1-1.228-1.372c-.285-.59-.428-1.276-.428-2.058s.143-1.472.428-2.068.689-1.067 1.203-1.402 1.12-.507 1.81-.507a3.62 3.62 0 0 1 1.178.199c.388.133.741.348 1.059.646s.572.686.76 1.173.284 1.087.284 1.8v.497h-5.886v-1.014h4.693c0-.431-.086-.815-.259-1.153s-.411-.605-.726-.8-.679-.293-1.103-.293c-.468 0-.872.116-1.213.348a2.28 2.28 0 0 0-.781.895c-.182.368-.273.762-.273 1.183v.676c0 .577.099 1.066.298 1.467a2.15 2.15 0 0 0 .84.91c.358.206.774.308 1.248.308.308 0 .587-.043.835-.129s.469-.222.651-.398.324-.401.423-.666l1.134.318a2.52 2.52 0 0 1-.602 1.014c-.282.288-.63.514-1.044.676s-.88.239-1.397.239z" class="B E"/><path d="M27.835 70.98c1.04-1.31 1.601-2.919 1.601-4.619 0-4.109-3.336-7.452-7.435-7.452s-7.435 3.343-7.435 7.452c0 1.7.561 3.308 1.601 4.619l-2.347 2.353.613.614c2.024 2.028 4.712 3.144 7.569 3.144a10.62 10.62 0 0 0 7.569-3.144l.613-.614-2.347-2.353zM22 60.648c2.235 0 4.173 1.293 5.109 3.174l-3.211 3.218L22 65.137l-4.6 4.61c-.716-.973-1.105-2.149-1.105-3.382A5.72 5.72 0 0 1 22 60.648zM21.992 73.8a7.38 7.38 0 0 0 4.617-1.596l1.092 1.094a8.9 8.9 0 0 1-5.705 2.05 8.9 8.9 0 0 1-5.705-2.05l.63-.632.462-.463.617-.618.617-.618.846-.848 2.529-2.534 1.899 1.903 3.767-3.776a6.37 6.37 0 0 1 .035.644c0 1.527-.591 2.963-1.67 4.04a5.67 5.67 0 0 1-4.035 1.674c-.604 0-1.195-.095-1.756-.277l-.673.675-.66.662a7.37 7.37 0 0 0 3.094.67z" fill="#9b96b0"/><rect x="42" y="48" width="486" height="40" rx="8" fill-opacity=".05" class="C"/><rect x="42.5" y="48.5" width="485" height="39" rx="7.5" stroke="#bab3ff" class="G"/><path d="M74.631 62.818V73h-1.233v-8.889h-.06l-2.486 1.651v-1.253l2.545-1.69h1.233zM77.475 73v-.895l3.361-3.679.974-1.124c.255-.322.444-.623.567-.905a2.19 2.19 0 0 0 .189-.895c0-.358-.086-.668-.258-.93s-.401-.464-.696-.607-.626-.214-.994-.214c-.391 0-.733.081-1.024.244s-.512.383-.671.671-.234.626-.234 1.014h-1.173c0-.597.138-1.12.413-1.571s.65-.802 1.123-1.054 1.013-.378 1.606-.378 1.125.126 1.586.378a2.84 2.84 0 0 1 1.084 1.019c.262.428.393.903.393 1.427a3.07 3.07 0 0 1-.204 1.099c-.133.355-.365.751-.696 1.188s-.784.965-1.367 1.591l-2.287 2.446v.079h4.733V73h-6.423zm11.833.139c-.656 0-1.241-.113-1.755-.338s-.916-.539-1.218-.94-.461-.873-.487-1.407h1.253a1.48 1.48 0 0 0 .338.85c.199.235.459.418.781.547s.678.194 1.069.194c.438 0 .825-.076 1.163-.229a1.91 1.91 0 0 0 .795-.636c.192-.272.288-.587.288-.945 0-.374-.093-.704-.278-.989s-.457-.514-.815-.676-.796-.244-1.312-.244h-.815v-1.094h.815a2.44 2.44 0 0 0 1.064-.219c.308-.146.548-.351.721-.617s.263-.577.263-.935c0-.345-.076-.645-.229-.9s-.368-.454-.646-.597-.6-.214-.975-.214a2.57 2.57 0 0 0-.994.194c-.308.126-.56.31-.756.552s-.302.527-.318.865h-1.193c.02-.534.181-1.001.482-1.402s.696-.719 1.183-.945 1.029-.338 1.616-.338c.63 0 1.17.128 1.621.383s.797.585 1.039.999.363.862.363 1.342c0 .573-.151 1.062-.452 1.467s-.704.684-1.218.84v.08c.643.106 1.145.38 1.506.82s.542.979.542 1.626a2.58 2.58 0 0 1-.452 1.492c-.298.438-.706.782-1.223 1.034s-1.105.378-1.765.378zm6.845-1.531l-.08.537a10.83 10.83 0 0 1-.259 1.213l-.353 1.218-.303.91h-.895l.169-.84.209-1.168.179-1.312.06-.557h1.273zm1.831-.696v-1.014l4.475-7.08h.736v1.571h-.498l-3.38 5.349v.08h6.025v1.094h-7.358zM102.777 73v-2.396-.472-7.313h1.173V73h-1.173zm4.523 0V62.818h1.233v5.051h.12l4.573-5.051h1.611l-4.275 4.594L114.837 73h-1.491l-3.54-4.733-1.273 1.432V73H107.3z" class="B F"/><g clip-path="url(#G)"><g clip-path="url(#H)" class="C D"><use xlink:href="#h"/></g><g clip-path="url(#I)" class="C D"><path d="M155.101 65a1 1 0 0 1 1-1h2a1 1 0 0 1 1 1v13h-4V65z"/></g><g clip-path="url(#J)" class="C D"><path d="M162.101 67a1 1 0 0 1 1-1h2a1 1 0 0 1 1 1v11h-4V67z"/></g><g clip-path="url(#K)" class="C D"><path d="M169.101 67a1 1 0 0 1 1-1h2a1 1 0 0 1 1 1v11h-4V67z"/></g><g clip-path="url(#L)" class="C D"><path d="M176.101 65a1 1 0 0 1 1-1h2a1 1 0 0 1 1 1v13h-4V65z"/></g><g clip-path="url(#M)" class="C D"><path d="M183.101 65a1 1 0 0 1 1-1h2a1 1 0 0 1 1 1v13h-4V65z"/></g><g clip-path="url(#N)"><path d="M190.101 63a1 1 0 0 1 1-1h2a1 1 0 0 1 1 1v15h-4V63z" fill="#8e8aff"/></g><g clip-path="url(#O)" class="C D"><path d="M197.101 63a1 1 0 0 1 1-1h2a1 1 0 0 1 1 1v15h-4V63z"/></g><g clip-path="url(#P)" class="C D"><path d="M204.101 65a1 1 0 0 1 1-1h2a1 1 0 0 1 1 1v13h-4V65z"/></g><g clip-path="url(#Q)" class="C D"><path d="M211.101 65a1 1 0 0 1 1-1h2a1 1 0 0 1 1 1v13h-4V65z"/></g><g clip-path="url(#R)" class="C D"><path d="M218.101 69a1 1 0 0 1 1-1h2a1 1 0 0 1 1 1v9h-4v-9z"/></g><g clip-path="url(#S)" class="C D"><path d="M225.101 69a1 1 0 0 1 1-1h2a1 1 0 0 1 1 1v9h-4v-9z"/></g></g><use xlink:href="#i" fill="url(#D)"/><use xlink:href="#i" y="14.375" fill="url(#E)"/><path d="M270.718 61.307c.259.448.106 1.022-.343 1.281a.94.94 0 0 1-1.281-.343.94.94 0 0 1 .344-1.281c.448-.259 1.021-.105 1.28.343z" fill="url(#D)"/><path d="M277.563 75.036a.94.94 0 0 0 .343-1.281.94.94 0 0 0-1.281-.343.94.94 0 0 0-.343 1.281.94.94 0 0 0 1.281.343z" fill="url(#D)"/><path d="M276.282 61.307a.94.94 0 0 0 .343 1.281.94.94 0 0 0 1.281-.343.94.94 0 0 0-.343-1.281.94.94 0 0 0-1.281.343z" fill="url(#D)"/><path d="M269.438 75.036c-.449-.259-.603-.832-.344-1.281a.94.94 0 0 1 1.281-.343.94.94 0 0 1 .343 1.281c-.259.448-.832.602-1.28.343z" fill="url(#D)"/><path d="M267.744 63.594c.449.259.602.832.343 1.281s-.832.602-1.28.343-.602-.832-.343-1.281.832-.602 1.28-.343z" fill="url(#D)"/><path d="M280.536 72.063c.259-.448.106-1.022-.343-1.281s-1.022-.105-1.28.343-.106 1.022.343 1.281 1.022.105 1.28-.343z" fill="url(#D)"/><path d="M279.256 63.594c-.449.259-.602.832-.343 1.281s.832.602 1.28.343.602-.832.343-1.281-.832-.602-1.28-.343z" fill="url(#D)"/><path d="M266.464 72.063c-.259-.448-.106-1.022.343-1.281s1.022-.105 1.28.343.106 1.022-.343 1.281-1.022.105-1.28-.343z" fill="url(#D)"/><path d="M266.312 67.063a.94.94 0 0 1 .938.938.94.94 0 0 1-.938.938.94.94 0 0 1-.937-.937.94.94 0 0 1 .937-.937z" fill="url(#D)"/><path d="M281.625 68a.94.94 0 0 0-.937-.937.94.94 0 0 0-.938.938.94.94 0 0 0 .938.938.94.94 0 0 0 .937-.937z" fill="url(#D)"/><path d="M296.134 62.818V73h-1.233v-8.889h-.06l-2.486 1.651v-1.253l2.546-1.69h1.233zM298.978 73v-.895l3.361-3.679.974-1.124c.255-.322.444-.623.567-.905a2.19 2.19 0 0 0 .189-.895c0-.358-.086-.668-.259-.93s-.401-.464-.696-.607-.626-.214-.994-.214c-.391 0-.733.081-1.024.244a1.67 1.67 0 0 0-.671.671 2.1 2.1 0 0 0-.234 1.014h-1.173c0-.597.137-1.12.412-1.571s.65-.802 1.124-1.054 1.012-.378 1.606-.378 1.125.126 1.586.378.822.592 1.083 1.019.393.903.393 1.427a3.07 3.07 0 0 1-.204 1.099c-.132.355-.364.751-.696 1.188s-.784.965-1.367 1.591l-2.287 2.446v.079h4.733V73h-6.423z" fill-opacity=".8" class="B"/><path d="M378.628 62.818V73h-1.233v-8.889h-.06l-2.486 1.651v-1.253l2.546-1.69h1.233zm2.605 8.094v-1.014l4.475-7.08h.736v1.571h-.498l-3.38 5.349v.08h6.025v1.094h-7.358zM386.026 73v-2.396-.472-7.313h1.173V73h-1.173z" class="B F"/><path d="M466.3 64a6 6 0 0 1 6-6h11a6 6 0 0 1 6 6v8a6 6 0 0 1-6 6h-11a6 6 0 0 1-6-6v-8z" fill="#12b881" fill-opacity=".12"/><path d="M473.777 70.466v-5.625h.955v5.625h-.955zm-2.335-2.335v-.955h5.625v.955h-5.625zM478.703 72v-.767l2.881-3.154.835-.963c.219-.276.381-.534.486-.776s.162-.5.162-.767c0-.307-.074-.572-.222-.797s-.343-.398-.596-.52-.537-.183-.853-.183c-.335 0-.627.07-.877.209s-.439.328-.576.575-.2.537-.2.869h-1.006c0-.511.118-.96.354-1.347a2.46 2.46 0 0 1 .963-.903c.409-.216.868-.324 1.376-.324s.965.108 1.36.324a2.44 2.44 0 0 1 .929.874 2.3 2.3 0 0 1 .336 1.223c0 .321-.058.635-.174.942s-.313.643-.597 1.018-.672.827-1.172 1.364l-1.96 2.097v.068h4.057V72h-5.506z" fill="#12b881"/><path d="M29.25 115.927c0 .36-.189.418-.657.418-.499 0-.589-.08-.642-.448-.098-.933-.748-1.726-1.836-1.814-.348-.03-.431-.155-.431-.573 0-.39.061-.574.37-.574 1.889.008 3.196 1.485 3.196 2.991zm2.75 0c0-2.8-1.949-5.76-6.453-5.76h-8.946c-.181 0-.295.088-.295.25 0 .088.068.169.128.213.325.249.809.529 1.443.837l1.587.691c.204.081.28.169.28.279 0 .154-.113.25-.332.25H12.31c-.212 0-.31.132-.31.264 0 .11.038.206.136.301.574.588 1.496 1.293 2.833 2.109a41.07 41.07 0 0 0 3.778 2.02c.196.088.257.191.257.302-.008.124-.106.227-.332.227h-3.257c-.181 0-.287.096-.287.243 0 .08.068.183.159.264.741.654 1.927 1.367 3.506 2.021 2.108.874 4.246 1.395 6.649 1.395 4.556 0 6.558-3.313 6.558-5.906zm-5.946 4.136c-2.327 0-4.276-1.844-4.276-4.144 0-2.263 1.942-4.085 4.276-4.085 2.388 0 4.262 1.815 4.262 4.085-.008 2.3-1.874 4.144-4.262 4.144z" fill="#9b96b0"/><rect x="42" y="96" width="486" height="40" rx="8" fill-opacity=".05" class="C"/><rect x="42.5" y="96.5" width="485" height="39" rx="7.5" stroke="#bab3ff" class="G"/><path d="M74.746 110.818V121h-1.233v-8.889h-.06l-2.486 1.65v-1.252l2.545-1.691h1.233zm6.165 10.321c-.749 0-1.387-.204-1.914-.611s-.93-1.006-1.208-1.785-.418-1.727-.418-2.834c0-1.1.139-2.04.418-2.819s.686-1.379 1.213-1.79 1.167-.621 1.909-.621 1.377.207 1.904.621.935 1.008 1.213 1.79.423 1.719.423 2.819c0 1.107-.139 2.052-.418 2.834s-.681 1.374-1.208 1.785-1.165.611-1.914.611zm0-1.094c.742 0 1.319-.358 1.73-1.073s.617-1.737.617-3.063c0-.882-.094-1.632-.283-2.252s-.454-1.092-.805-1.417-.767-.487-1.258-.487c-.736 0-1.311.363-1.725 1.089s-.621 1.745-.621 3.067c0 .882.093 1.631.278 2.247s.452 1.086.8 1.407a1.81 1.81 0 0 0 1.268.482zm8.606 1.094c-.683 0-1.286-.121-1.81-.363s-.926-.581-1.218-1.009-.436-.921-.433-1.472a2.71 2.71 0 0 1 .254-1.193c.172-.368.408-.674.706-.919s.638-.406 1.009-.473v-.059c-.487-.126-.875-.4-1.163-.821s-.431-.906-.428-1.446a2.46 2.46 0 0 1 .393-1.388c.265-.407.63-.729 1.094-.964s.999-.353 1.596-.353c.59 0 1.117.118 1.581.353s.829.557 1.094.964.404.87.408 1.388c-.003.54-.151 1.022-.443 1.446s-.671.695-1.148.821v.059a2.1 2.1 0 0 1 .994.473 2.67 2.67 0 0 1 .706.919c.176.365.265.763.269 1.193-.003.551-.153 1.041-.448 1.472s-.698.764-1.218 1.009-1.115.363-1.795.363zm0-1.094c.461 0 .859-.074 1.193-.223s.593-.36.776-.632.275-.59.278-.954a1.83 1.83 0 0 0-.298-1.019c-.196-.295-.462-.527-.8-.696s-.718-.254-1.148-.254-.822.085-1.163.254-.605.401-.8.696-.287.634-.283 1.019c-.003.364.085.683.264.954a1.77 1.77 0 0 0 .781.632c.338.149.739.223 1.203.223zm0-4.832c.365 0 .688-.073.969-.219s.509-.349.671-.611.245-.569.249-.92c-.003-.345-.085-.645-.244-.9a1.58 1.58 0 0 0-.661-.596c-.282-.143-.61-.214-.984-.214-.381 0-.714.071-.999.214s-.505.338-.661.596a1.66 1.66 0 0 0-.229.9c-.003.351.075.658.234.92s.386.465.671.611.613.219.984.219zm6.737 4.395l-.08.537c-.056.378-.142.782-.258 1.213l-.353 1.218-.303.91h-.895l.169-.84.209-1.169.179-1.312.06-.557h1.273zm5.095 1.531a3.8 3.8 0 0 1-1.253-.238 3.01 3.01 0 0 1-1.144-.771c-.345-.365-.621-.857-.83-1.477s-.313-1.405-.313-2.346c0-.902.085-1.7.254-2.396s.414-1.288.736-1.765.709-.846 1.163-1.094.972-.373 1.546-.373 1.077.114 1.521.343a2.89 2.89 0 0 1 1.094.945c.282.404.464.87.547 1.397h-1.213a2.25 2.25 0 0 0-.657-1.139c-.324-.301-.755-.452-1.292-.452-.789 0-1.41.343-1.865 1.029s-.678 1.649-.681 2.888h.08a3.01 3.01 0 0 1 .661-.721c.258-.202.544-.357.855-.467a2.98 2.98 0 0 1 .99-.164c.583 0 1.117.146 1.6.438s.872.687 1.164 1.198.437 1.088.437 1.745c0 .629-.141 1.206-.422 1.73a3.22 3.22 0 0 1-1.189 1.243c-.507.305-1.103.454-1.789.447zm0-1.094a2.06 2.06 0 0 0 1.123-.313 2.24 2.24 0 0 0 .791-.84c.195-.351.293-.742.293-1.173a2.35 2.35 0 0 0-.283-1.149 2.17 2.17 0 0 0-.771-.83c-.325-.205-.696-.308-1.114-.308-.314 0-.608.063-.879.189a2.25 2.25 0 0 0-.716.507c-.202.215-.361.462-.477.741s-.174.565-.174.87c0 .404.094.782.283 1.133s.454.635.785.85.714.323 1.139.323zm5.45.955v-10.182h1.233v5.051h.12l4.573-5.051h1.611l-4.275 4.594 4.275 5.588h-1.491l-3.54-4.733-1.273 1.432V121H106.8z" class="B F"/><g clip-path="url(#T)"><g clip-path="url(#U)" class="C D"><path d="M148.101 123a1 1 0 0 1 1-1h2a1 1 0 0 1 1 1v3h-4v-3z"/></g><g clip-path="url(#V)" class="C D"><path d="M155.101 122a1 1 0 0 1 1-1h2a1 1 0 0 1 1 1v4h-4v-4z"/></g><g clip-path="url(#W)" class="C D"><use xlink:href="#j"/></g><g clip-path="url(#X)" class="C D"><path d="M169.101 115a1 1 0 0 1 1-1h2a1 1 0 0 1 1 1v11h-4v-11z"/></g><g clip-path="url(#Y)" class="C D"><path d="M176.101 120a1 1 0 0 1 1-1h2a1 1 0 0 1 1 1v6h-4v-6z"/></g><g clip-path="url(#Z)" class="C D"><path d="M183.101 113a1 1 0 0 1 1-1h2a1 1 0 0 1 1 1v13h-4v-13z"/></g><g clip-path="url(#a)"><path d="M190.101 118a1 1 0 0 1 1-1h2a1 1 0 0 1 1 1v8h-4v-8z" fill="#8e8aff"/></g><g clip-path="url(#b)" class="C D"><path d="M197.101 111a1 1 0 0 1 1-1h2a1 1 0 0 1 1 1v15h-4v-15z"/></g><g clip-path="url(#c)" class="C D"><path d="M204.101 118a1 1 0 0 1 1-1h2a1 1 0 0 1 1 1v8h-4v-8z"/></g><g clip-path="url(#d)" class="C D"><path d="M211.101 111a1 1 0 0 1 1-1h2a1 1 0 0 1 1 1v15h-4v-15z"/></g><g clip-path="url(#e)" class="C D"><path d="M218.101 113a1 1 0 0 1 1-1h2a1 1 0 0 1 1 1v13h-4v-13z"/></g><g clip-path="url(#f)" class="C D"><path d="M225.101 121a1 1 0 0 1 1-1h2a1 1 0 0 1 1 1v5h-4v-5z"/></g></g><path d="M273 109.75a.94.94 0 0 0 .938-.938.94.94 0 0 0-.938-.937.94.94 0 0 0-.938.937.94.94 0 0 0 .938.938z" fill="url(#F)"/><path d="M273 124.125a.94.94 0 0 0 .938-.937.94.94 0 0 0-.938-.938.94.94 0 0 0-.938.938.94.94 0 0 0 .938.937z" fill="url(#F)"/><path d="M270.218 109.307c.259.448.106 1.021-.343 1.28a.94.94 0 0 1-1.281-.343c-.258-.448-.105-1.022.344-1.28s1.021-.106 1.28.343z" fill="url(#F)"/><path d="M277.063 123.036c.448-.258.602-.832.343-1.28s-.832-.602-1.281-.343-.602.832-.343 1.28.832.602 1.281.343z" fill="url(#F)"/><path d="M275.782 109.307c-.259.448-.105 1.021.343 1.28a.94.94 0 0 0 1.281-.343c.259-.448.105-1.022-.343-1.28s-1.022-.106-1.281.343z" fill="url(#F)"/><path d="M268.938 123.036c-.449-.258-.603-.832-.344-1.28a.94.94 0 0 1 1.281-.343c.448.258.602.832.343 1.28s-.832.602-1.28.343z" fill="url(#F)"/><path d="M267.244 111.594a.94.94 0 0 1 .343 1.281c-.259.448-.832.602-1.28.343s-.602-.832-.343-1.28.832-.603 1.28-.344z" fill="url(#F)"/><path d="M280.036 120.063c.259-.449.106-1.022-.343-1.281s-1.022-.105-1.28.343a.94.94 0 0 0 .343 1.281c.448.259 1.022.105 1.28-.343z" fill="url(#F)"/><path d="M278.756 111.594a.94.94 0 0 0-.343 1.281c.259.448.832.602 1.28.343s.602-.832.343-1.28-.832-.603-1.28-.344z" fill="url(#F)"/><path d="M265.964 120.063c-.259-.449-.106-1.022.343-1.281s1.022-.105 1.28.343a.94.94 0 0 1-.343 1.281c-.448.259-1.022.105-1.28-.343z" fill="url(#F)"/><path d="M265.812 115.062a.94.94 0 0 1 .938.938.94.94 0 0 1-.938.938.94.94 0 0 1-.937-.938.94.94 0 0 1 .937-.938z" fill="url(#F)"/><path d="M281.125 116a.94.94 0 0 0-.937-.938.94.94 0 0 0-.938.938.94.94 0 0 0 .938.938.94.94 0 0 0 .937-.938z" fill="url(#F)"/><path d="M295.634 110.818V121h-1.233v-8.889h-.06l-2.486 1.65v-1.252l2.546-1.691h1.233zm6.224 10.321a3.8 3.8 0 0 1-1.252-.238c-.418-.153-.799-.41-1.144-.771s-.621-.857-.83-1.477-.313-1.405-.313-2.346c0-.902.084-1.7.253-2.396s.415-1.288.736-1.765.709-.846 1.163-1.094.973-.373 1.547-.373 1.077.114 1.521.343a2.9 2.9 0 0 1 1.094.945 3.3 3.3 0 0 1 .546 1.397h-1.213c-.112-.458-.331-.837-.656-1.139s-.756-.452-1.292-.452c-.789 0-1.411.343-1.865 1.029s-.678 1.649-.681 2.888h.08a3 3 0 0 1 .661-.721c.258-.202.543-.357.855-.467s.641-.164.989-.164a3.04 3.04 0 0 1 1.601.438c.484.288.872.687 1.164 1.198s.437 1.088.437 1.745c0 .629-.141 1.206-.423 1.73a3.21 3.21 0 0 1-1.188 1.243c-.507.305-1.103.454-1.79.447zm0-1.094a2.06 2.06 0 0 0 1.124-.313 2.25 2.25 0 0 0 .791-.84c.195-.351.293-.742.293-1.173 0-.421-.095-.804-.284-1.149a2.16 2.16 0 0 0-.77-.83c-.325-.205-.696-.308-1.114-.308-.315 0-.608.063-.88.189s-.51.291-.716.507a2.44 2.44 0 0 0-.477.741c-.116.275-.174.565-.174.87 0 .404.095.782.283 1.133s.455.635.786.85.714.323 1.138.323z" fill-opacity=".8" class="B"/><path d="M374.312 121v-.895l3.361-3.679.974-1.123c.255-.322.444-.624.567-.905a2.19 2.19 0 0 0 .189-.895c0-.358-.086-.668-.259-.93a1.67 1.67 0 0 0-.696-.606c-.295-.143-.626-.214-.994-.214-.391 0-.733.081-1.024.243s-.512.383-.671.672-.234.626-.234 1.014h-1.173c0-.597.137-1.12.412-1.571s.65-.802 1.124-1.054 1.012-.378 1.606-.378 1.125.126 1.586.378.822.591 1.083 1.019.393.903.393 1.427c0 .374-.068.741-.204 1.099s-.364.75-.696 1.188-.784.964-1.367 1.591l-2.287 2.446v.079h4.733V121h-6.423zm11.713.139c-.749 0-1.387-.204-1.914-.611s-.929-1.006-1.208-1.785-.417-1.727-.417-2.834c0-1.1.139-2.04.417-2.819s.686-1.379 1.213-1.79 1.167-.621 1.909-.621 1.378.207 1.905.621.934 1.008 1.213 1.79.422 1.719.422 2.819c0 1.107-.139 2.052-.417 2.834s-.682 1.374-1.209 1.785-1.165.611-1.914.611zm0-1.094c.743 0 1.32-.358 1.731-1.073s.616-1.737.616-3.063c0-.882-.094-1.632-.283-2.252s-.454-1.092-.806-1.417-.767-.487-1.258-.487c-.735 0-1.31.363-1.725 1.089s-.621 1.745-.621 3.067c0 .882.093 1.631.278 2.247s.453 1.086.801 1.407.774.482 1.267.482z" class="B F"/><path d="M466.8 112a6 6 0 0 1 6-6h10a6 6 0 0 1 6 6v8a6 6 0 0 1-6 6h-10a6 6 0 0 1-6-6v-8z" fill="#df1624" fill-opacity=".12"/><path d="M475.47 115.168v.937h-3.818v-.937h3.818zm1.548 3.042v-.869l3.835-6.068h.631v1.346h-.426l-2.898 4.586v.068h5.165v.937h-6.307zm4.108 1.79v-2.054-.405-6.268h1.006V120h-1.006z" fill="#df1624"/></g><defs><filter id="A" x="-2" y="-2" width="544" height="152" filterUnits="userSpaceOnUse" color-interpolation-filters="sRGB"><feFlood flood-opacity="0"/><feGaussianBlur stdDeviation="1"/><feComposite in2="SourceAlpha" operator="in"/><feBlend in="SourceGraphic"/></filter><linearGradient id="B" x1="270" y1="0" x2="270" y2="148" xlink:href="#k"><stop stop-color="#fff"/><stop offset="1" stop-color="#fff" stop-opacity="0"/></linearGradient><linearGradient id="C" x1="0" y1="148" x2="98.989" y2="-147.655" xlink:href="#k"><stop stop-color="#a9a3c2"/><stop offset="1" stop-color="#a9a3c2" stop-opacity=".24"/></linearGradient><linearGradient id="D" x1="265.375" y1="59.875" x2="281.625" y2="76.125" xlink:href="#k"><stop stop-color="#b2b2c2"/><stop offset="1" stop-color="#81818f"/></linearGradient><linearGradient id="E" x1="265.375" y1="45.5" x2="281.625" y2="61.75" xlink:href="#k"><stop stop-color="#b2b2c2"/><stop offset="1" stop-color="#81818f"/></linearGradient><linearGradient id="F" x1="264.875" y1="107.875" x2="281.125" y2="124.125" xlink:href="#k"><stop stop-color="#b2b2c2"/><stop offset="1" stop-color="#81818f"/></linearGradient><clipPath id="G"><path transform="translate(148.101 58)" d="M0 0h81v20H0z" class="B"/></clipPath><clipPath id="H"><path transform="translate(148.101 58)" d="M0 0h4v20H0z" class="B"/></clipPath><clipPath id="I"><path transform="translate(155.101 58)" d="M0 0h4v20H0z" class="B"/></clipPath><clipPath id="J"><path transform="translate(162.101 58)" d="M0 0h4v20H0z" class="B"/></clipPath><clipPath id="K"><path transform="translate(169.101 58)" d="M0 0h4v20H0z" class="B"/></clipPath><clipPath id="L"><path transform="translate(176.101 58)" d="M0 0h4v20H0z" class="B"/></clipPath><clipPath id="M"><path transform="translate(183.101 58)" d="M0 0h4v20H0z" class="B"/></clipPath><clipPath id="N"><path transform="translate(190.101 58)" d="M0 0h4v20H0z" class="B"/></clipPath><clipPath id="O"><path transform="translate(197.101 58)" d="M0 0h4v20H0z" class="B"/></clipPath><clipPath id="P"><path transform="translate(204.101 58)" d="M0 0h4v20H0z" class="B"/></clipPath><clipPath id="Q"><path transform="translate(211.101 58)" d="M0 0h4v20H0z" class="B"/></clipPath><clipPath id="R"><path transform="translate(218.101 58)" d="M0 0h4v20H0z" class="B"/></clipPath><clipPath id="S"><path transform="translate(225.101 58)" d="M0 0h4v20H0z" class="B"/></clipPath><clipPath id="T"><path transform="translate(148.101 106)" d="M0 0h81v20H0z" class="B"/></clipPath><clipPath id="U"><path transform="translate(148.101 106)" d="M0 0h4v20H0z" class="B"/></clipPath><clipPath id="V"><path transform="translate(155.101 106)" d="M0 0h4v20H0z" class="B"/></clipPath><clipPath id="W"><path transform="translate(162.101 106)" d="M0 0h4v20H0z" class="B"/></clipPath><clipPath id="X"><path transform="translate(169.101 106)" d="M0 0h4v20H0z" class="B"/></clipPath><clipPath id="Y"><path transform="translate(176.101 106)" d="M0 0h4v20H0z" class="B"/></clipPath><clipPath id="Z"><path transform="translate(183.101 106)" d="M0 0h4v20H0z" class="B"/></clipPath><clipPath id="a"><path transform="translate(190.101 106)" d="M0 0h4v20H0z" class="B"/></clipPath><clipPath id="b"><path transform="translate(197.101 106)" d="M0 0h4v20H0z" class="B"/></clipPath><clipPath id="c"><path transform="translate(204.101 106)" d="M0 0h4v20H0z" class="B"/></clipPath><clipPath id="d"><path transform="translate(211.101 106)" d="M0 0h4v20H0z" class="B"/></clipPath><clipPath id="e"><path transform="translate(218.101 106)" d="M0 0h4v20H0z" class="B"/></clipPath><clipPath id="f"><path transform="translate(225.101 106)" d="M0 0h4v20H0z" class="B"/></clipPath><path id="g" d="M0 12C0 5.373 5.373 0 12 0h516c6.627 0 12 5.373 12 12v124c0 6.627-5.373 12-12 12H12c-6.627 0-12-5.373-12-12V12z"/><path id="h" d="M148.101 65a1 1 0 0 1 1-1h2a1 1 0 0 1 1 1v13h-4V65z"/><path id="i" d="M273.5 61.75a.94.94 0 0 0 .938-.937.94.94 0 0 0-.938-.937.94.94 0 0 0-.938.938.94.94 0 0 0 .938.938z"/><path id="j" d="M162.101 111a1 1 0 0 1 1-1h2a1 1 0 0 1 1 1v15h-4v-15z"/><linearGradient id="k" gradientUnits="userSpaceOnUse"/></defs></svg>